<svg xmlns="http://www.w3.org/2000/svg" width="300" height="300"><path d="M222.049 106.17c1.963 40.127-28.975 74.249-69.103 76.212-40.127 1.963-74.249-28.975-76.212-69.102-1.964-40.128 28.974-74.25 69.102-76.213 40.128-1.963 74.25 28.975 76.213 69.102z"/><path fill="#fbe2d6" d="M202.553 213.964l-.594-55.351c-.212-19.714-16.305-35.34-35.893-35.13l-32.351.348c-19.715.212-35.34 16.305-35.13 35.893l.595 55.351c.21 19.588 16.304 35.34 35.892 35.13l32.478-.35c19.588-.21 35.215-16.176 35.003-35.89z"/><path d="M115.897 154.769c-3.743 1.39-11.955 9.642-11.955 9.642s5.692-10.477 10.057-12.825c4.364-2.348 27.879 4.77 28.84 5.708 1.361 1.329.245 3.954-1.102 3.773-2.735-.323-21.897-7.493-25.84-6.298z"/><path fill="#fff" d="M142.893 171.732s-5.108-5.138-11.459-5.062c-6.325.077-14.15 5.37-14.15 5.37s8.12 6.434 14.291 6.36c6.173-.075 11.318-6.668 11.318-6.668z"/><path d="M134.605 169.52a4.348 4.348 0 00-5.923 1.665 4.348 4.348 0 001.664 5.922 4.348 4.348 0 005.923-1.663 4.348 4.348 0 00-1.664-5.923z"/><path d="M104.072 175.14c12.132 5.19 15.892-16.7 39.543-3.331-11.282-11.61-19.978-7.83-27.251-3.225-1.21.176-3.55-.413-4.179-.723.463 1.23 1.856 1.538 2.376 1.71-1.133.16-3.736-.535-4.203-.838.331.614.793 1.08 1.546 1.402.544.287 1.333.401 1.828.457-1.113.639-4.93-.28-5.398-.584.332.614.777 1.002 1.33 1.328.56.364 2.002.902 2.178.784-1.574.737-6.14.46-6.626-.12.408.597 1.062 1.021 1.815 1.344.753.323 1.426.462 2.391.458-1.695.924-3.31 1.468-5.35 1.338z"/><path d="M114.792 172.264c2.92 4.259 7.831 7.236 17.384 6.213-8.077-1.458-12.306-4.383-14.795-7.75zm69.578-18.32c3.775 1.3 12.183 9.351 12.183 9.351s-5.942-10.337-10.362-12.579c-4.42-2.242-27.756 5.44-28.694 6.401-1.33 1.362-.15 3.96 1.192 3.746 2.726-.39 21.71-8.019 25.681-6.92z"/><path fill="#fff" d="M157.79 171.552s4.983-5.26 11.334-5.336c6.326-.076 14.276 5.028 14.276 5.028s-7.963 6.627-14.135 6.702c-6.172.074-11.475-6.394-11.475-6.394z"/><path d="M166.023 169.142a4.348 4.348 0 015.96 1.52 4.348 4.348 0 01-1.52 5.962 4.348 4.348 0 01-5.96-1.52 4.348 4.348 0 011.52-5.962z"/><path d="M196.683 174.024c-12.004 5.482-16.29-16.312-39.612-2.378 10.999-11.878 19.783-8.308 27.165-3.88 1.214.147 3.539-.499 4.16-.823-.433 1.24-1.819 1.582-2.334 1.766 1.137.133 3.722-.624 4.182-.939-.317.622-.767 1.098-1.512 1.44-.537.3-1.323.432-1.816.5 1.127.612 4.922-.4 5.381-.714-.316.622-.752 1.021-1.296 1.36-.551.377-1.98.95-2.16.837 1.592.699 6.15.311 6.622-.281-.394.607-1.037 1.047-1.782 1.388-.745.341-1.415.496-2.38.515 1.717.883 3.345 1.388 5.382 1.21z"/><path d="M185.896 171.407c-2.816 4.328-7.654 7.423-17.23 6.63 8.04-1.652 12.197-4.678 14.605-8.104zm-65.108-88.135c3.438-2.124 26.867-11.967 38.857 17.079 11.339 27.611-15.668 41.398-35.7 42.923-17.12 1.041-29.593 15.601-24.234 30.63-12.046-9.467-23.162-31.272-2.401-47.54 19.04-14.899 20.235-20.611 16.179-26.786-4.368-7.027 3.651-14.138 7.299-16.306z"/><path d="M191.358 95.25c-2.691-2.071-21.424-12.317-33.948 10.925-11.856 22.1 9.527 35.95 26.137 38.951 14.22 2.345 23.389 15.59 17.614 27.687 10.884-6.873 22.054-24.139 6.105-39.524-14.63-14.093-15.136-18.97-11.213-23.782 4.256-5.496-1.834-12.13-4.695-14.257zm-87.92-56.971c-.132-12.219 9.676-22.34 21.995-22.473 10.416-.112 19.307 7.005 21.817 16.894 2.198-9.84 10.933-17.246 21.45-17.359 12.218-.131 22.34 9.677 22.472 21.996.066 6.109-1.588 10.634-5.551 14.683l-2.08 2.126-35.8 33.64-36.513-32.963c-.505-.395-.607-.595-1.011-.89l-.101-.1c-3.95-3.964-6.613-9.444-6.678-15.554z"/><path d="M89.435 133.074c-12.17-1.092-21.26-11.864-20.158-24.134.931-10.375 8.902-18.51 18.993-20.017-9.57-3.172-16.064-12.604-15.124-23.079 1.093-12.17 11.864-21.26 24.135-20.158 6.085.546 10.422 2.645 14.054 6.994l1.907 2.283 29.886 38.986-36.452 33.03c-.444.464-.653.545-.988.918l-.108.09c-4.34 3.533-10.06 5.634-16.145 5.087zm124.986-7.356c12.145-1.354 21-12.319 19.635-24.562-1.154-10.353-9.298-18.314-19.419-19.604 9.5-3.377 15.79-12.947 14.625-23.399-1.354-12.144-12.318-21-24.562-19.635-6.072.677-10.363 2.869-13.9 7.294l-1.858 2.324-29.042 39.62 37.154 32.239c.453.453.664.53 1.007.895l.11.089c4.415 3.438 10.178 5.416 16.25 4.739z"/><path d="M72.603 97.517c-9.584-7.58-11.288-21.57-3.645-31.233 6.462-8.17 17.585-10.61 26.854-6.344-6.27-7.896-6.537-19.345-.012-27.593 7.58-9.584 21.57-11.289 31.233-3.646 4.792 3.79 7.271 7.922 7.928 13.549l.345 2.955 3.65 48.988-48.59 7.668c-.625.145-.844.099-1.328.227l-.14.016c-5.566.578-11.503-.796-16.295-4.587z"/><path d="M147.06 47.308c-9.454-.175-16.966-7.97-16.79-17.424.174-9.454 7.97-16.965 17.423-16.79 9.454.175 16.965 7.97 16.79 17.423-.175 9.454-7.97 16.966-17.423 16.791zm83.23 48.276c9.234-8.004 10.308-22.057 2.239-31.366-6.823-7.871-18.046-9.808-27.113-5.13 5.908-8.17 5.66-19.619-1.228-27.566-8.004-9.233-22.057-10.307-31.366-2.238-4.617 4.002-6.907 8.241-7.31 13.892l-.212 2.967-1.445 49.103 48.886 5.476c.63.116.848.06 1.337.166l.141.01c5.586.328 11.455-1.312 16.071-5.314zM107.359 208.048l-8.283-9.313-.116 20.67-.674 20.677c-.315 9.679 3.777 18.478 10.068 24.867 6.292 6.39 15.034 10.374 24.77 10.439l17.327.115 17.327.116c19.37.025 35.073-15.471 35.202-34.84l-.688-41.297s-11.104 14.716-16.954 20.556c-.727.802-10.788 8.208-16.825 8.262-4.45-.03-6.873-1.747-9.204-3.464-2.331-1.717-4.57-3.433-8.654-3.46-4.083-.028-6.319 1.659-8.66 3.345-2.34 1.685-4.786 3.37-9.288 3.34-10.76-1.98-19.156-13.024-25.348-20.013z"/><path fill="#fff" d="M162.59 275.587l13.08.087a9.827 9.827 0 00-1.31-12.235c3.905-3.788 3.946-9.994.029-13.964 3.97-3.917 4.011-10.187.094-14.093l-8.605-8.655c-3.97 3.917-4.012 10.187-.094 14.093-3.904 3.788-4.011 10.123-.158 14.027a9.832 9.832 0 00-.094 13.963 10.059 10.059 0 00-2.943 6.777zm-24.381-.163l-13.081-.087a9.828 9.828 0 011.473-12.217c-3.854-3.84-3.812-10.046.158-13.963-3.917-3.97-3.876-10.24.094-14.092l8.72-8.54c3.916 3.97 3.875 10.24-.095 14.092 3.854 3.84 3.876 10.176-.029 14.029a9.832 9.832 0 01-.093 13.963 10.055 10.055 0 012.853 6.815z"/></svg>