<svg xmlns="http://www.w3.org/2000/svg" width="1012.633" height="759.475" viewBox="0 0 1012.633 164.976" stroke="#000" fill="none" stroke-linecap="round" stroke-linejoin="round"><path class="st2" d="M747.964 126.274c1.039 49.896-103.952 181.915-237.01 182.954-133.058 2.08-240.128-126.82-241.168-176.717 0 0 132.019 8.316 170.48 7.276 40.542-1.04 48.858 9.356 66.53 8.316 17.672 0 24.948-10.395 65.49-10.395 38.461 1.04 175.678-11.434 175.678-11.434z" fill="#e60000" stroke="none" stroke-width="10.395"/><path d="M715.739 152.261c-4.159 41.581-72.767 92.517-205.825 93.557-134.097 3.118-201.666-38.462-206.863-84.2 0 0 100.833 24.947 139.295 22.868 40.541-1.04 48.857 13.514 66.529 12.475 17.672 0 24.948-14.554 65.49-14.554 38.462 0 141.374-30.146 141.374-30.146z" fill="#000" stroke="none" stroke-width="10.395"/><path d="M715.739 152.261c-5.198 50.937-69.648 61.332-202.706 62.371-133.058 2.08-202.705-2.079-209.982-53.015 0 0 100.833 6.237 139.295 5.198 40.541-1.04 48.857 9.355 66.529 8.316 17.672 0 24.948-10.395 65.49-10.395 38.462 0 141.374-12.475 141.374-12.475z" class="st0" fill="#fff" stroke="none" stroke-width="10.395"/><g stroke="none" fill="#000" stroke-width=".473"><path d="M146.592-.049c-66.164 11.498-68.826 102.12-42.015 141.471 45.405 52.014 67.182 52.398 144.619 56.71 134.274-6.582 239.157-68.463 257.12-110.193 12.26-17.806 23.522-69.218-4.845-90.626-38.224-25.403-121.92-13.17-136.365-1.557-56.495 29.35-85.73 100.15-139.531 119.23C149.61 136.136 107.55 57.51 146.592-.05z"/><path d="M866.041-.049c66.164 11.498 68.826 102.12 42.015 141.471-45.405 52.014-67.182 52.398-144.619 56.71-134.274-6.582-239.157-68.463-257.12-110.193-12.26-17.806-23.522-69.218 4.845-90.626 38.224-25.403 121.92-13.17 136.365-1.557 56.495 29.35 85.73 100.15 139.531 119.23C863.022 136.136 905.082 57.51 866.041-.05z"/></g></svg>