<svg xmlns="http://www.w3.org/2000/svg" version="1.1" id="Contours" x="0" y="0" width="1024" height="768" viewBox="0 0 1024 300.777" xml:space="preserve" stroke="#000" fill="none" stroke-linecap="round" stroke-linejoin="round"><style id="style1171"/><path class="st2" d="M660.635 285.265c.656 52.684-57.602 91.041-141.653 92.139-84.052 2.195-158.183-35.919-159.756-93.184 0 0-7.046-80.159 17.25-81.256 79.666-24.92 122.869 5.679 134.032 4.581 9.666-.695 48.91-34 134.69-6.064 24.297 1.098 15.437 83.784 15.437 83.784z" id="path2512" fill="#e60000" fill-opacity="1" stroke="none" stroke-width="8.49"/><path d="M643.544 246.086c-2.627 43.903-44.133 76.611-128.184 77.71-84.708 3.292-128.307-26.868-131.59-75.162 0 0 64.611 12.599 88.907 10.404 25.61-1.098 30.863 14.268 42.026 13.17 11.163 0 15.76-15.365 41.369-15.365 24.296 0 87.472-10.757 87.472-10.757z" id="path2514" fill="#000" fill-opacity="1" stroke="none" stroke-width="8.49"/><path id="path2537" d="M643.544 246.086c-3.283 53.781-42.163 43.684-126.214 44.782-84.052 2.195-128.963 11.548-133.56-42.234 0 0 64.611-7.158 88.907-8.255 25.61-1.098 30.863 9.878 42.026 8.78 11.163 0 15.76-10.975 41.369-10.975 24.296 0 87.472 7.902 87.472 7.902z" class="st0" fill="#fff" fill-opacity="1" stroke="none" stroke-width="8.49"/><g transform="translate(730.74 -2203.497) scale(11.11699)" id="g1085" stroke="none" fill="#000" fill-opacity="1" stroke-width=".473"><path id="path166" d="M-52.034 203.876c-5.952 1.035-6.191 9.186-3.78 12.726 4.085 4.679 6.044 4.713 13.01 5.101 12.078-.592 21.512-6.158 23.128-9.912 1.103-1.602 2.116-6.226-.436-8.152-3.438-2.285-10.967-1.185-12.266-.14-5.082 2.64-7.712 9.009-12.552 10.725-6.833 1.903-10.616-5.17-7.104-10.348z"/><path d="M12.682 203.876c5.952 1.035 6.191 9.186 3.78 12.726-4.085 4.679-6.044 4.713-13.01 5.101-12.078-.592-21.512-6.158-23.128-9.912-1.103-1.602-2.116-6.226.436-8.152 3.438-2.285 10.967-1.185 12.266-.14 5.082 2.64 7.712 9.009 12.551 10.725 6.833 1.903 10.617-5.17 7.105-10.348z" id="path166-2"/></g></svg>