<svg xmlns="http://www.w3.org/2000/svg" width="1024" height="768" viewBox="0 0 1024 370.872" stroke="#000" fill="none" stroke-linecap="round" stroke-linejoin="round"><path d="M714.965 336.734c1.114 53.479-59.05 132.693-201.662 134.921-142.61 2.229-208.346-82.556-209.46-134.921 0 0 96.931-115.927 138.155-117.04 43.452-1.115 52.365 10.027 71.305 8.912 18.94 0 26.74-11.141 70.192-11.141 41.223-1.114 131.47 119.269 131.47 119.269z" class="st2" fill="#e60000" stroke="none"/><path d="M671.11 346.076c1.115 40.11-34.136 65.415-157.807 66.53-123.67 1.113-162.264-27.535-163.378-66.53 0 0 64.219-80.703 99.872-81.817 37.88-1.114 45.68 7.8 61.278 6.685 16.712 0 23.397-7.799 61.278-7.799 35.653-1.114 98.758 82.931 98.758 82.931z" fill="#000" stroke="none"/><path d="M572.354 263.145c-37.88 0-44.567 7.8-61.279 7.8-15.598 1.113-23.396-7.8-61.277-6.686-17.935.56-47.143 24.802-71.748 48.76h266.847c-24.6-24.973-54.27-50.445-72.543-49.874zM376.008 389.247c29.213 23.98 74.239 33.025 137.154 32.459 62.564-.564 106.584-9.095 134.676-32.46z" fill="#fff" stroke="none"/><g stroke="none" fill="#000"><path d="M152.275 109.248c-66.163 11.498-68.825 102.12-42.014 141.471 45.405 52.014 67.182 52.398 144.618 56.71C389.153 300.847 494.036 238.966 512 197.236c12.26-17.806 23.521-69.218-4.845-90.626-38.224-25.403-121.92-13.17-136.366-1.557-56.495 29.35-85.729 100.15-139.53 119.23-75.965 21.151-118.025-57.475-78.984-115.035z"/><path d="M871.725 109.248c66.163 11.498 68.825 102.12 42.014 141.471-45.405 52.014-67.182 52.398-144.618 56.71C634.847 300.847 529.964 238.966 512 197.236c-12.26-17.806-23.521-69.218 4.845-90.626 38.224-25.403 121.92-13.17 136.366-1.557 56.495 29.35 85.729 100.15 139.53 119.23 75.965 21.151 118.025-57.475 78.984-115.035z"/></g></svg>