<svg xmlns="http://www.w3.org/2000/svg" stroke-linejoin="round" stroke-linecap="round" fill="none" stroke="#000" viewBox="0 0 1024 71.544" height="768" width="1024" version="1.1" id="svg105"><style id="style127"/><path id="path2894" fill-opacity="1" fill="#e60000" d="M750.125 61.88c.705 48.803-102.828 130.47-233.925 132.365-131.097 1.893-236.94-76.454-237.65-125.553 0 0 132.506-35.047 170.232-35.592 40.084-.58 47.765 8.776 65.214 8.524 17.448-.251 24.856-9.825 64.94-10.405 37.726-.545 171.189 30.661 171.189 30.661z" stroke="none"/><g id="g1085" transform="translate(730.74 -2344.67) scale(11.11699)" stroke="none" fill="#000" fill-opacity="1" stroke-width=".473"><path d="M-52.034 203.876c-5.952 1.035-6.191 9.186-3.78 12.726 4.085 4.679 6.044 4.713 13.01 5.101 12.078-.592 21.512-6.158 23.128-9.912 1.103-1.602 2.116-6.226-.436-8.152-3.438-2.285-10.967-1.185-12.266-.14-5.082 2.64-7.712 9.009-12.552 10.725-6.833 1.903-10.616-5.17-7.104-10.348z" id="path166"/><path id="path166-2" d="M12.682 203.876c5.952 1.035 6.191 9.186 3.78 12.726-4.085 4.679-6.044 4.713-13.01 5.101-12.078-.592-21.512-6.158-23.128-9.912-1.103-1.602-2.116-6.226.436-8.152 3.438-2.285 10.967-1.185 12.266-.14 5.082 2.64 7.712 9.009 12.551 10.725 6.833 1.903 10.617-5.17 7.105-10.348z"/></g></svg>