<svg xmlns="http://www.w3.org/2000/svg" width="1024" height="768" viewBox="0 0 1024 428.977" stroke="#000" fill="none" stroke-linecap="round" stroke-linejoin="round"><path d="M714.965 335.793c1.114 53.48-59.05 172.693-201.662 174.922-142.61 2.228-208.346-122.557-209.46-174.922 0 0 96.931-135.926 138.155-137.04 43.452-1.115 52.365 10.027 71.305 8.913 18.94 0 26.74-11.142 70.192-11.142 41.223-1.114 131.47 139.269 131.47 139.269z" class="st2" fill="#e60000" stroke="none" stroke-width="11.142"/><path d="M687.11 339.135c1.115 40.11-50.136 111.415-173.807 112.53-123.67 1.114-178.264-73.534-179.378-112.53 0 0 80.219-94.702 115.872-95.816 37.88-1.115 45.68 7.799 61.278 6.684 16.712 0 23.397-7.799 61.278-7.799 35.653-1.114 114.758 96.931 114.758 96.931z" fill="#000" stroke="none" stroke-width="11.142"/><ellipse ry="31.876" rx="91.181" cy="315.942" cx="508.645" fill="#faa" stroke="none" stroke-width="1.572"/><path d="M572.354 242.205c-37.88 0-44.567 7.798-61.279 7.798-15.598 1.115-23.396-7.8-61.277-6.685-17.935.56-47.143 24.803-71.748 48.76h266.847c-24.6-24.973-54.27-50.444-72.543-49.873z" fill="#fff" stroke="none" stroke-width="11.142"/><path d="M376.008 408.406c29.213 23.98 74.239 43.026 137.154 42.459 62.564-.564 106.584-19.095 134.676-42.46z" fill="#fff" stroke="none"/><g stroke="none" fill="#000" stroke-width=".473"><path d="M152.275 79.822C86.112 91.32 83.45 181.94 110.261 221.292c45.405 52.015 67.182 52.399 144.618 56.71C389.153 271.422 494.036 209.54 512 167.81c12.26-17.806 23.521-69.218-4.845-90.627-38.224-25.402-121.92-13.17-136.366-1.557-56.495 29.351-85.729 100.15-139.53 119.23-75.965 21.152-118.025-57.474-78.984-115.035z"/><path d="M871.725 79.822c66.163 11.498 68.825 102.119 42.014 141.47-45.405 52.015-67.182 52.399-144.618 56.71C634.847 271.422 529.964 209.54 512 167.81c-12.26-17.806-23.521-69.218 4.845-90.627 38.224-25.402 121.92-13.17 136.366-1.557 56.495 29.351 85.729 100.15 139.53 119.23 75.965 21.152 118.025-57.474 78.984-115.035z"/></g></svg>