<svg xmlns="http://www.w3.org/2000/svg" version="1.1" id="Contours" x="0" y="0" width="1024" height="768" viewBox="0 0 1024 481.853" xml:space="preserve" stroke="#000" fill="none" stroke-linecap="round" stroke-linejoin="round"><style id="style1199"/><path id="path2414" d="M714.965 414.231c1.114 53.48-59.05 172.693-201.662 174.922-142.61 2.228-208.346-122.557-209.46-174.922 0 0 96.931-135.926 138.155-137.04 43.452-1.115 52.365 10.027 71.305 8.913 18.94 0 26.74-11.142 70.192-11.142 41.223-1.114 131.47 139.269 131.47 139.269z" class="st2" fill="#e60000" stroke="none" stroke-width="11.142"/><path id="path2418" d="M687.11 417.573c1.115 40.11-50.136 111.415-173.807 112.53-123.67 1.114-178.264-73.534-179.378-112.53 0 0 80.219-94.702 115.872-95.816 37.88-1.115 45.68 7.799 61.278 6.684 16.712 0 23.397-7.799 61.278-7.799 35.653-1.114 114.758 96.931 114.758 96.931z" fill="#000" fill-opacity="1" stroke="none" stroke-width="11.142"/><path d="M572.354 320.643c-37.88 0-44.567 7.798-61.279 7.798-15.598 1.115-23.396-7.8-61.277-6.685-17.935.56-47.143 24.803-71.748 48.76h266.847c-24.6-24.973-54.27-50.444-72.543-49.873z" id="path2418-5" fill="#fff" fill-opacity="1" stroke="none" stroke-width="11.142"/><path d="M376.008 486.844c29.213 23.98 74.239 43.026 137.154 42.459 62.564-.564 106.584-19.095 134.676-42.46z" id="rect2391" fill="#fff" fill-opacity="1" stroke="none"/><g transform="translate(730.74 -2110.509) scale(11.11699)" id="g1085" stroke="none" fill="#000" fill-opacity="1" stroke-width=".473"><path id="path166" d="M-52.034 203.876c-5.952 1.035-6.191 9.186-3.78 12.726 4.085 4.679 6.044 4.713 13.01 5.101 12.078-.592 21.512-6.158 23.128-9.912 1.103-1.602 2.116-6.226-.436-8.152-3.438-2.285-10.967-1.185-12.266-.14-5.082 2.64-7.712 9.009-12.552 10.725-6.833 1.903-10.616-5.17-7.104-10.348z"/><path d="M12.682 203.876c5.952 1.035 6.191 9.186 3.78 12.726-4.085 4.679-6.044 4.713-13.01 5.101-12.078-.592-21.512-6.158-23.128-9.912-1.103-1.602-2.116-6.226.436-8.152 3.438-2.285 10.967-1.185 12.266-.14 5.082 2.64 7.712 9.009 12.551 10.725 6.833 1.903 10.617-5.17 7.105-10.348z" id="path166-2"/></g></svg>