<svg xmlns="http://www.w3.org/2000/svg" width="1024" height="768" viewBox="0 0 1024 132.972" stroke="#000" fill="none" stroke-linecap="round" stroke-linejoin="round"><path class="st2" d="M770.427 63.505c1.112 53.362-111.17 166.755-253.467 167.867-142.298 2.223-256.803-107.835-257.915-161.197 0 0 143.41 35.575 184.542 34.463 43.357-1.112 52.25 10.005 71.15 8.893 18.898 0 26.68-11.117 70.036-11.117 41.133 1.112 185.654-38.909 185.654-38.909z" fill="#e60000" stroke="none" stroke-width="11.117"/><g stroke="none" fill="#000" stroke-width=".473"><path d="M152.275-44.86C86.112-33.36 83.45 57.26 110.261 96.613c45.405 52.014 67.182 52.398 144.618 56.71C389.153 146.74 494.036 84.858 512 43.129c12.26-17.806 23.521-69.218-4.845-90.627-38.224-25.402-121.92-13.17-136.366-1.557-56.495 29.351-85.729 100.15-139.53 119.23-75.965 21.152-118.025-57.474-78.984-115.035z"/><path d="M871.725-44.86c66.163 11.5 68.825 102.12 42.014 141.472-45.405 52.014-67.182 52.398-144.618 56.71C634.847 146.74 529.964 84.858 512 43.129c-12.26-17.806-23.521-69.218 4.845-90.627 38.224-25.402 121.92-13.17 136.366-1.557 56.495 29.351 85.729 100.15 139.53 119.23 75.965 21.152 118.025-57.474 78.984-115.035z"/></g></svg>