<svg xmlns="http://www.w3.org/2000/svg" width="1024" height="768" viewBox="0 0 1024 302.931" stroke="#000" fill="none" stroke-linecap="round" stroke-linejoin="round"><path class="st2" d="M734.965 300.757c1.114 53.479-79.05 112.693-221.662 114.921-142.61 2.229-228.346-62.556-229.46-114.921 0 0 116.931-115.927 158.155-117.04 43.452-1.115 52.365 10.027 71.305 8.912 18.94 0 26.74-11.141 70.192-11.141 41.223-1.114 151.47 119.269 151.47 119.269z" fill="#e60000" stroke="none"/><path d="M691.11 310.1c-49.982 50.947-54.136 45.414-177.807 46.528-123.67 1.115-132.715.208-183.378-46.529 0 0 84.219-80.703 119.872-81.817 37.88-1.114 45.68 7.8 61.278 6.685 16.712 0 23.397-7.799 61.278-7.799 35.653-1.114 118.758 82.931 118.758 82.931z" fill="#000" stroke="none"/><path d="M572.354 227.168c-37.88 0-44.567 7.8-61.279 7.8-15.598 1.113-23.396-7.8-61.277-6.686-17.935.56-56.934 24.802-81.539 48.76l284.38-1.549c-24.6-24.973-62.013-48.896-80.285-48.325zM376.008 345.27c29.213 23.98 75.64 21.822 138.555 21.255 62.564-.563 105.183 2.109 133.275-21.255z" fill="#fff" stroke="none"/><g stroke="none" fill="#000"><path d="M152.275 63.887c-66.163 11.498-68.825 102.119-42.014 141.47 45.405 52.015 67.182 52.399 144.618 56.71 134.274-6.58 239.157-68.462 257.121-110.191 12.26-17.806 23.521-69.218-4.845-90.627-38.224-25.402-121.92-13.17-136.366-1.557-56.495 29.351-85.729 100.15-139.53 119.23-75.965 21.152-118.025-57.474-78.984-115.035z"/><path d="M871.725 63.887c66.163 11.498 68.825 102.119 42.014 141.47-45.405 52.015-67.182 52.399-144.618 56.71-134.274-6.58-239.157-68.462-257.121-110.191-12.26-17.806-23.521-69.218 4.845-90.627 38.224-25.402 121.92-13.17 136.366-1.557 56.495 29.351 85.729 100.15 139.53 119.23 75.965 21.152 118.025-57.474 78.984-115.035z"/></g></svg>