<?xml version="1.0" encoding="utf-8"?><!DOCTYPE svg PUBLIC "-//W3C//DTD SVG 1.1//EN" "http://www.w3.org/Graphics/SVG/1.1/DTD/svg11.dtd"><svg version="1.1" id="Contours" xmlns="http://www.w3.org/2000/svg" xmlns:xlink="http://www.w3.org/1999/xlink" x="0px" y="0px" width="1292.968628px" height="1292.968628px" viewBox="-0.000001 0.000003 1292.968628 811.224792" enable-background="new 0 0 1292.968628 1292.968628" xml:space="preserve" stroke="black" fill="none" stroke-linecap='round' stroke-linejoin='round'><path class="selected"  fill="#000000" opacity="1.000000" stroke="none" 
 	d="
M1288.987354 339.376053 C1283.911211 354.373497 1278.735102 369.575680 1269.862479 382.689304 C1267.479428 386.211423 1263.179343 389.946880 1259.525182 387.771713 C1256.104788 385.735698 1256.893047 380.642154 1258.125233 376.857162 C1262.422591 363.656662 1266.719949 350.456163 1271.017307 337.255663 C1276.749901 319.646447 1272.493530 300.537047 1268.413241 282.473316 C1267.612818 278.929782 1266.818673 275.246594 1267.597979 271.698355 C1268.377285 268.150117 1271.202840 264.775494 1274.831363 264.599057 C1280.738450 264.311825 1283.664244 271.544787 1284.857672 277.337186 C1286.947958 287.482558 1289.038245 297.627928 1291.128531 307.773298 C1292.140253 312.683766 1293.157191 317.654983 1292.938701 322.663828 C1292.688350 328.403090 1290.829117 333.934572 1288.987354 339.376053 z"/><path class="selected"  fill="#000000" opacity="1.000000" stroke="none" 
 	d="
M22.031634 296.659130 C23.387960 298.490833 21.812725 300.950318 20.811505 302.997833 C19.627250 305.419644 19.280127 308.155431 19.033782 310.840005 C17.170894 331.141046 20.198632 351.873963 27.789247 370.794459 C28.592850 372.797532 29.250755 375.531987 27.465460 376.744754 C26.126320 377.654443 24.309340 376.979933 22.902291 376.179280 C9.865845 368.761155 3.981685 353.082246 1.632450 338.268112 C-0.656589 323.833575 -0.537325 309.020061 1.983827 294.624252 C2.612687 291.033459 3.422574 287.385102 5.357351 284.295459 C7.292128 281.205816 10.565655 278.734884 14.210510 278.669362 C19.185050 278.579936 23.553331 283.727289 22.655961 288.621037 C22.152948 291.364186 20.372000 294.417813 22.031633 296.659130 z"/><path class="selected"  fill="#000000" opacity="1.000000" stroke="none" 
 	d="
M1248.007264 143.230557 C1272.374824 186.255122 1264.090569 239.598843 1254.895396 288.182174 C1237.238570 381.473016 1218.086068 476.648016 1170.011632 558.524708 C1110.206688 660.379897 1008.578667 733.957594 897.050408 772.849208 C785.522150 811.740822 664.554225 817.903400 547.105810 805.374237 C442.333025 794.197287 343.964455 744.103793 264.791779 674.577200 C185.619102 605.050607 124.588585 516.816405 76.001578 423.320082 C56.706717 386.190840 38.973165 347.097808 35.516262 305.397425 C30.419492 243.915530 57.778726 182.649356 99.939809 137.611109 C142.100892 92.572862 197.853328 62.262824 255.595257 40.540250 C326.903325 13.714079 407.206312 -0.813094 478.787083 25.276686 C560.756918 55.153075 651.279874 61.130141 736.466322 42.290777 C793.844158 29.601413 849.027394 5.925141 907.583743 0.986503 C996.938856 -6.549715 1083.897033 30.223253 1162.869987 72.701523 C1195.778151 90.402291 1229.592504 110.716545 1248.007268 143.230551 M476.923289 47.044619 C452.704279 40.385843 428.603159 32.723226 403.656920 29.793226 C341.102626 22.446063 279.009930 45.348652 222.426507 73.013371 C180.351491 93.584653 138.566650 117.955846 109.797315 154.912711 C78.299016 195.375182 65.425835 246.861410 53.331505 296.691938 C51.025426 306.193337 49.803253 318.520028 58.194814 323.537625 C61.613406 325.581704 65.799804 325.723469 69.781969 325.809180 C98.796916 326.433662 127.811863 327.058151 156.826809 327.682640 C251.148393 329.712723 345.474137 331.742867 439.815466 332.372191 C622.337001 333.589740 804.848321 329.563709 987.329515 325.537930 C1070.467512 323.703795 1155.234283 321.586077 1233.694418 294.030716 C1241.308901 254.376160 1248.749668 212.309003 1234.537110 174.513932 C1220.234398 136.479110 1186.360777 109.461313 1151.871210 87.974454 C1071.251996 37.749017 973.555068 6.661690 880.798128 27.111678 C848.952511 34.132634 818.706278 46.956538 787.388699 56.047544 C686.680053 85.281700 578.037152 74.844870 476.923289 47.044619 M1158.753020 554.224238 C1195.016446 478.227251 1219.469865 396.608866 1230.967904 313.192001 C1166.264240 332.533988 1098.337543 338.135271 1030.923775 342.142814 C794.649476 356.188600 557.713618 351.975961 321.059785 347.757979 C235.420217 346.231588 149.780649 344.705198 64.141081 343.178808 C96.963266 427.318620 141.729005 506.789163 196.677782 578.465072 C206.690964 591.526401 220.455264 605.719715 236.655330 602.817993 C529.899970 550.292387 832.330219 527.258652 1125.231957 581.663860 C1140.559617 584.510906 1152.039205 568.294333 1158.753024 554.224242 M324.469482 693.023563 C395.022961 737.518431 475.277772 766.540943 557.971521 777.464801 C632.157576 787.264793 707.403142 782.635295 782.089300 777.989012 C802.047214 776.747416 822.100844 775.492704 841.625775 771.175655 C857.381939 767.691895 872.631273 762.248241 887.731961 756.559437 C973.593280 724.213326 1059.569347 680.784556 1114.387725 607.208866 C1034.578669 578.690516 948.280338 575.263172 863.547448 573.497028 C656.237184 569.175922 446.581432 573.329092 245.373316 623.444076 C265.985571 652.146825 294.579862 674.173534 324.469483 693.023561 M712.547966 794.465875 C702.547751 793.610301 692.481410 793.528736 682.468643 794.222149 C680.835819 794.335226 678.647124 795.158975 679.000051 796.757206 C690.933059 798.462624 703.099884 798.524036 715.049499 796.939167 C715.966634 795.811258 713.996400 794.589796 712.547968 794.465871 M406.635039 749.104720 C404.377611 748.016394 401.380474 747.035059 399.628121 748.826621 C408.374895 755.060140 418.062773 759.970623 428.261336 763.339909 C430.229935 762.330046 428.108609 759.457317 426.115624 758.496477 C419.622094 755.365893 413.128567 752.235306 406.635039 749.104720 M42.194594 280.733817 C46.456848 272.707770 48.694489 263.616616 48.644447 254.529166 C42.459869 261.544677 39.972800 271.649214 42.194593 280.733817 M894.401797 19.313977 C903.052051 19.316925 911.702450 18.641749 920.247490 17.296684 C921.494695 17.100363 923.056060 16.544598 923.068226 15.282095 C913.390091 13.861275 903.312535 15.278666 894.401797 19.313977 z"/></svg>