<?xml version="1.0" encoding="utf-8"?><!DOCTYPE svg PUBLIC "-//W3C//DTD SVG 1.1//EN" "http://www.w3.org/Graphics/SVG/1.1/DTD/svg11.dtd"><svg version="1.1" id="Contours" xmlns="http://www.w3.org/2000/svg" xmlns:xlink="http://www.w3.org/1999/xlink" x="0px" y="0px" width="1697.909790px" height="1697.909790px" viewBox="0.000003 -0.000002 1697.909790 293.976074" enable-background="new 0 0 1697.909790 1697.909790" xml:space="preserve" stroke="black" fill="none" stroke-linecap='round' stroke-linejoin='round'><path class="selected"  fill="#000000" opacity="1.000000" stroke="none" 
 	d="
M21.895604 111.003216 C202.538645 3.183526 427.210234 -28.166175 630.468033 26.085653 C828.660602 78.985514 1037.357234 8.737318 1242.478892 10.685401 C1387.811437 12.065654 1532.637319 50.715078 1659.333070 121.930530 C1653.146334 104.758484 1646.959599 87.586437 1640.772863 70.414391 C1666.092980 86.269207 1686.341887 110.091991 1697.909837 137.635884 C1678.508446 156.151832 1651.745292 164.348578 1626.027832 171.955582 C1571.281756 188.148921 1516.535692 204.342288 1461.789627 220.535656 C1411.098323 235.529663 1360.355907 250.536936 1308.732309 261.913786 C1158.537504 295.013837 1003.259692 296.895133 849.542011 291.898395 C568.875993 282.775082 283.825952 249.838594 26.906600 136.484744 C32.189607 147.169216 29.820230 161.128111 21.307544 169.470910 C-3.696707 145.248533 -7.218607 102.094248 13.527260 74.138121 C17.125587 69.289187 23.041477 64.466252 28.596571 66.832906 C44.032698 73.409207 12.089411 97.388499 21.895600 111.003211 M44.448763 117.663039 C210.977349 145.127586 379.999629 153.366104 548.578846 161.558704 C664.981626 167.215636 781.439574 172.873970 897.979730 172.862322 C1138.557904 172.838277 1378.482850 148.655896 1617.249457 119.187856 C1432.309208 37.591088 1222.910117 12.438376 1023.907011 47.916431 C880.397785 73.501097 731.788874 70.135474 589.585052 38.080114 C406.363656 -3.221377 208.216068 25.705634 44.448761 117.663025 M1622.523925 139.035510 C1582.297191 143.255521 1542.070457 147.475531 1501.843723 151.695542 C1300.770339 172.789287 1099.300362 193.905773 897.126520 194.996285 C763.734778 195.715792 630.467153 187.712285 497.313593 179.712073 C362.818974 171.631279 228.097232 163.526819 94.915095 143.115548 C272.322440 209.834968 460.519392 244.103782 649.144780 262.686312 C978.563853 295.139205 1322.184162 278.197799 1622.523924 139.035510 M757.470134 181.037072 C758.071941 180.970553 758.872380 180.589523 758.660212 180.022443 C758.534621 179.686765 758.005294 179.606906 757.786261 179.890591 C751.532798 176.433566 743.839005 175.688127 737.038198 177.880344 C743.413502 180.701888 750.540564 181.803016 757.470134 181.037072 M1665.323714 141.314801 C1662.889878 142.049921 1660.586899 143.216072 1658.553907 144.742801 C1661.596063 146.879682 1666.193267 146.383226 1668.709079 143.646137 C1667.878263 142.471317 1666.661028 141.574621 1665.292724 141.129423 z"/></svg>