<svg xmlns="http://www.w3.org/2000/svg" stroke-linejoin="round" stroke-linecap="round" fill="none" stroke="#000" viewBox="0 0 1024 132.972" height="768" width="1024"><path d="M93.413 40.417c89.79-65.007 201.463-83.909 302.493-51.199 98.513 31.895 202.246-10.46 304.203-9.285 72.238.832 144.224 24.135 207.199 67.072l-9.226-31.06c12.586 9.56 22.65 23.923 28.4 40.53-9.643 11.163-22.946 16.105-35.729 20.692l-81.635 29.29c-25.196 9.04-50.418 18.088-76.078 24.948-74.655 19.956-151.836 21.09-228.242 18.078-139.506-5.5-281.191-25.359-408.894-93.703 2.626 6.442 1.448 14.858-2.783 19.889-12.429-14.605-14.18-40.623-3.867-57.479 1.788-2.923 4.729-5.831 7.49-4.404 7.672 3.965-8.205 18.422-3.33 26.631m11.21 4.015c82.773 16.56 166.786 21.527 250.58 26.466 57.858 3.41 115.743 6.822 173.67 6.815C648.454 77.7 767.71 63.12 886.39 45.352 794.465-3.845 690.382-19.01 591.467 2.38c-71.332 15.426-145.199 13.397-215.882-5.93-91.07-24.902-189.56-7.461-270.962 47.982m784.389 12.886l-59.985 7.633C729.083 77.67 628.941 90.401 528.45 91.058c-66.303.434-132.544-4.391-198.729-9.215-66.85-4.872-133.815-9.758-200.013-22.065 88.18 40.227 181.725 60.888 275.482 72.092 163.739 19.567 334.537 9.353 483.822-74.552M459.033 82.642c.3-.04.697-.27.592-.612-.063-.202-.326-.25-.435-.08-3.108-2.084-6.932-2.533-10.312-1.211 3.168 1.701 6.71 2.365 10.155 1.903m451.252-23.95a10.267 10.267 0 00-3.365 2.067c1.513 1.289 3.798.99 5.048-.66-.413-.71-1.018-1.25-1.698-1.518z" stroke="none" fill="#000" class="selected" stroke-width=".547"/></svg>