<?xml version="1.0" encoding="UTF-8" standalone="no"?>
<svg
   xmlns:dc="http://purl.org/dc/elements/1.1/"
   xmlns:cc="http://creativecommons.org/ns#"
   xmlns:rdf="http://www.w3.org/1999/02/22-rdf-syntax-ns#"
   xmlns:svg="http://www.w3.org/2000/svg"
   xmlns="http://www.w3.org/2000/svg"
   xmlns:sodipodi="http://sodipodi.sourceforge.net/DTD/sodipodi-0.dtd"
   xmlns:inkscape="http://www.inkscape.org/namespaces/inkscape"
   inkscape:version="1.0beta1 (32d4812, 2019-09-19)"
   sodipodi:docname="mouth-H.svg"
   stroke-linejoin="round"
   stroke-linecap="round"
   fill="none"
   stroke="black"
   xml:space="preserve"
   enable-background="new 0 0 1188.854736 1188.854736"
   viewBox="3e-06 1.2e-05 1024 428.97719"
   height="768"
   width="1024"
   y="0px"
   x="0px"
   id="Contours"
   version="1.1">
  <metadata
     id="metadata212">
    <rdf:RDF>
      <cc:Work
         rdf:about="">
        <dc:format>image/svg+xml</dc:format>
        <dc:type
           rdf:resource="http://purl.org/dc/dcmitype/StillImage" />
      </cc:Work>
    </rdf:RDF>
  </metadata>
  <defs
     id="defs210" />
  <sodipodi:namedview
     inkscape:current-layer="Contours"
     inkscape:window-maximized="1"
     inkscape:window-y="23"
     inkscape:window-x="0"
     inkscape:cy="458.30343"
     inkscape:cx="24.656961"
     inkscape:zoom="0.22879162"
     showgrid="false"
     id="namedview208"
     inkscape:window-height="755"
     inkscape:window-width="1280"
     inkscape:pageshadow="2"
     inkscape:pageopacity="0"
     guidetolerance="10"
     gridtolerance="10"
     objecttolerance="10"
     borderopacity="1"
     inkscape:document-rotation="0"
     bordercolor="#666666"
     pagecolor="#ffffff" />
  <g
     transform="matrix(0.50462963,0,0,0.50462963,184.85367,90.406801)"
     id="g287"
     style="opacity:1;stop-opacity:1">
    <path
       inkscape:connector-curvature="0"
       class="selected"
       fill="#000000"
       opacity="1.000000"
       stroke="none"
       d="m 1162.1653,93.048238 c 12.0323,16.071952 18.1818,35.783942 22.2052,55.453662 7.5961,37.13616 7.3737,78.84841 -15.2437,109.26631 -2.3746,3.19356 -6.0464,6.55656 -9.8034,5.2441 -4.0855,-1.42724 -4.5317,-7.01279 -3.772,-11.27327 2.918,-16.36461 12.5113,-31.05876 14.7047,-47.53615 1.0806,-8.11804 0.3156,-16.35534 -0.4505,-24.50908 -2.1514,-22.89472 -4.6531,-46.82424 -17.3046,-66.02673 -1.3097,-1.98791 -3.2892,-4.1489 -5.6174,-3.65229 -4.4578,0.95086 -6.3672,-5.44267 -6.2523,-9.99924 0.1377,-5.459881 0.9461,-12.015087 5.8776,-14.36241 5.664,-2.696013 11.8969,2.373512 15.6564,7.395098 z"
       id="path203" />
    <path
       inkscape:connector-curvature="0"
       class="selected"
       fill="#000000"
       opacity="1.000000"
       stroke="none"
       d="M 32.690966,171.72561 C 120.50739,74.673932 245.93678,12.567497 376.3575,1.558931 c 23.86369,-2.014289 47.95776,-2.380979 71.70283,0.734189 48.61133,6.377429 94.66172,27.163355 143.50419,31.423216 43.84323,3.823849 87.56617,-5.842658 131.18488,-11.695735 93.68977,-12.571973 189.72041,-7.471562 281.5514,14.953851 58.0305,14.171225 120.1369,40.318026 144.5084,94.856008 18.2498,40.83882 10.8245,88.28007 -0.4842,131.55795 -18.8527,72.14783 -48.1459,142.60779 -94.6881,200.87061 -52.7777,66.0686 -126.01328,113.98374 -204.76426,144.78676 -78.75099,30.80303 -163.07437,45.22628 -247.36517,51.97951 -28.55257,2.28758 -57.21583,3.71742 -85.84128,2.685 C 404.52945,659.702 295.13759,617.30319 210.32924,545.36581 194.92071,525.62883 179.51218,505.89184 164.10365,486.15486 124.74451,435.73924 85.127858,384.92266 56.175233,327.8909 32.324557,280.90912 15.851234,226.82244 28.628433,175.70604 16.911219,207.66885 14.397894,242.94695 21.465497,276.24805 12.154023,282.07036 3.075978,268.07085 1.616009,257.1864 -3.948375,215.70244 4.97969,172.41626 26.50435,136.5196 c 5.008473,-8.35263 16.832332,-16.83489 22.927963,-9.2392 -5.580449,14.81507 -11.160898,29.63014 -16.741347,44.44521 M 216.89082,517.39617 c 5.9796,6.00008 14.35198,12.37371 22.07714,8.8983 19.64387,-8.83745 41.67462,-10.35737 63.16986,-11.74899 68.4696,-4.43276 136.93921,-8.86553 205.40881,-13.29829 -24.07436,-1.38335 -48.14873,-2.7667 -72.22309,-4.15005 -16.99211,-0.97639 -38.1104,-5.14774 -42.31463,-21.64046 -1.98529,-7.78804 -9.66209,-12.44915 -15.15647,-18.31488 -14.76431,-15.76212 -13.54391,-40.81988 -6.59425,-61.26814 14.24742,-41.92074 49.45855,-76.12187 91.77608,-89.14355 -123.15411,0.74448 -246.30822,1.48896 -369.462332,2.23344 -11.857507,0.0717 -28.439481,-5.38393 -25.489467,-16.86884 C 407.4389,290.41568 746.75409,280.4081 1085.6196,262.08402 c 16.7199,-0.90412 36.4212,-3.64824 44.158,-18.49794 25.9064,-49.724 10.1214,-117.28311 -35.1359,-150.379886 C 1076.9175,80.244459 1055.9811,72.472132 1035.0435,65.856228 942.78138,36.703033 844.39234,27.101087 748.23449,37.866064 693.90019,43.948849 639.52346,56.460903 585.13553,50.877948 544.66623,46.72375 505.89513,32.679986 465.86942,25.402369 336.18295,1.822313 201.06331,52.162028 98.591607,135.07253 c -20.073846,16.24187 -39.893619,34.79308 -48.3492,59.19105 -11.646096,33.60398 0.665407,70.50015 15.2095,102.95517 36.627603,81.73418 88.214563,156.73658 151.438913,220.17742 m 748.43092,8.82338 c -154.68029,-24.00693 -312.3551,-14.9168 -468.61961,-5.76643 -23.83844,1.39591 -47.67689,2.79181 -71.51533,4.18772 -25.45106,1.49034 -50.9096,2.98125 -76.28483,5.4461 -34.86903,3.38704 -69.55938,8.61294 -103.87876,15.64872 17.76376,20.60201 41.51243,35.14197 65.91591,47.16129 122.2208,60.19674 266.53321,63.01837 399.52685,33.45042 89.45816,-19.88888 175.78326,-53.80431 254.85577,-100.12782 M 804.02304,480.365 c -8.66107,3.5263 -17.32213,7.05261 -25.9832,10.57891 65.51505,3.93452 130.92797,9.56937 196.15073,16.89696 12.35643,1.38821 23.12177,-7.8975 31.74373,-16.85689 58.1435,-60.41921 100.0187,-136.34926 120.0952,-217.76234 -1.8463,-0.7666 -3.9457,-0.28772 -5.8888,0.18221 -73.7666,17.83991 -151.30219,8.45276 -226.62664,17.72633 -17.38088,2.13985 -34.69414,5.27886 -52.20236,5.6482 -17.89233,0.37745 -35.70182,-2.14365 -53.55162,-3.43314 -36.56436,-2.64146 -73.28268,-0.11245 -109.85501,2.4163 14.14069,1.11396 28.057,5.00818 40.72209,11.39532 22.45539,11.32449 47.49769,16.25835 71.30009,24.37835 23.8024,8.12 47.64661,20.51633 60.98352,41.83805 18.45446,29.50314 9.78741,72.75501 -18.60974,92.86977 -8.61784,6.10434 -18.49684,10.13962 -28.27799,14.12197 m 13.61672,-25.62177 c 10.93358,-10.34214 21.80699,-22.10689 24.76181,-36.86398 3.34232,-16.69234 -4.52548,-34.18509 -16.82223,-45.95774 -12.29674,-11.77265 -28.45974,-18.64025 -44.70883,-23.71686 -16.2491,-5.07662 -33.00882,-8.63039 -48.78006,-15.03924 -9.6815,-3.9342 -18.92427,-8.91946 -28.73407,-12.52184 -16.59304,-6.09336 -34.37827,-8.08127 -51.99408,-9.54454 -69.44483,-5.76852 -141.48946,-3.68752 -205.6244,23.56262 -6.81914,2.89736 -13.66091,6.16316 -18.96505,11.33632 -10.23635,9.98356 -13.32688,25.60259 -23.48164,35.66913 -11.30751,11.20927 -14.64948,27.93737 -17.45673,43.60986 -1.16761,6.51863 -1.70673,14.63688 3.79929,18.31649 5.69221,3.80403 13.18123,-0.17668 18.90379,-3.93488 50.6779,-33.28194 109.68641,-53.77079 170.08505,-59.05668 9.5408,-0.83498 19.1679,-1.29613 28.68029,-0.18324 25.43358,2.97556 48.55136,16.97209 73.95829,20.16717 30.65596,3.85518 60.93976,10.66413 90.29558,20.30187 18.75624,6.15782 39.11963,15.3832 46.08299,33.85554 M 578.36783,399.28947 c -57.48537,5.07934 -113.58895,25.07544 -161.32824,57.49964 14.00885,14.54545 33.80433,23.35745 53.98754,24.03265 14.56124,0.48712 29.12248,0.97425 43.68371,1.46137 47.02741,1.57323 94.07366,3.1467 141.12437,2.61484 48.71543,-0.55067 98.46237,-3.5846 143.62274,-21.86128 -5.35225,-13.25405 -19.64402,-20.37742 -33.18895,-24.94372 -37.00252,-12.47437 -76.78931,-14.6143 -114.09605,-26.14698 -15.09735,-4.66706 -29.87551,-10.89001 -45.56309,-12.79029 -9.36319,-1.13418 -18.847,-0.69637 -28.24203,0.13376 M 552.89995,502.1801 c 0.72369,-0.0754 1.56308,-0.27911 1.8451,-0.94984 0.16039,-0.38146 0.0752,-0.85377 -0.20837,-1.15515 -3.67947,-0.46834 -7.45172,-0.19552 -11.02551,0.7974 2.96255,1.18544 6.21506,1.63842 9.38878,1.30759 z"
       id="path205" />
  </g>
</svg>
