<svg xmlns="http://www.w3.org/2000/svg" stroke-linejoin="round" stroke-linecap="round" fill="none" stroke="#000" viewBox="0 0 1024 71.544" height="768" width="1024"><path class="selected" fill="#000" d="M899.98 10.14c2.326 5.588 1.35 11.949.13 17.878a258.522 258.522 0 01-8.68 31.752c-.734 2.137-1.562 4.365-3.274 5.839-1.712 1.474-4.59 1.845-6.124.187-1.644-1.779-.919-4.605-.129-6.895 4.201-12.169 7.48-24.656 9.803-37.319.71-3.874.703-8.978-2.946-10.46a19.366 19.366 0 01-9.48-8.328c-.407-.718-.772-1.478-.886-2.294-.465-3.323 3.576-5.825 6.87-5.187 3.294.637 5.802 3.235 8.078 5.7 2.567 2.778 5.184 5.634 6.637 9.126z" stroke="none"/><path class="selected" fill="#000" d="M144.458 29.367l118.285 6.347c208.08 11.166 418.253 22.22 623.599-13.206 3.28 5.937-5.621 10.97-12.329 11.976a1850.99 1850.99 0 01-95.274 11.77C582.637 65.332 384.992 53 188.352 40.655c-16.042-1.007-32.204-2.033-47.746-6.131-3.987 4.041 1.759 10.082 6.348 13.425s7.335 12.312 1.706 13.05c-1.51.197-2.985-.507-4.286-1.298-15.688-9.532-16.67-35.838-1.737-46.513 2.298-1.643 5.736-2.827 7.715-.813 4.6 4.681-8.506 10.972-5.894 16.992z" stroke="none"/></svg>