<?xml version="1.0" encoding="UTF-8" standalone="no"?>
<svg
   xmlns:dc="http://purl.org/dc/elements/1.1/"
   xmlns:cc="http://creativecommons.org/ns#"
   xmlns:rdf="http://www.w3.org/1999/02/22-rdf-syntax-ns#"
   xmlns:svg="http://www.w3.org/2000/svg"
   xmlns="http://www.w3.org/2000/svg"
   xmlns:sodipodi="http://sodipodi.sourceforge.net/DTD/sodipodi-0.dtd"
   xmlns:inkscape="http://www.inkscape.org/namespaces/inkscape"
   inkscape:version="1.0beta1 (32d4812, 2019-09-19)"
   sodipodi:docname="mouth-F.svg"
   stroke-linejoin="round"
   stroke-linecap="round"
   fill="none"
   stroke="black"
   xml:space="preserve"
   enable-background="new 0 0 520.120605 520.120605"
   viewBox="-2.1e-05 1e-06 1024 300.77658"
   height="768"
   width="1024"
   y="0px"
   x="0px"
   id="Contours"
   version="1.1">
  <style
     id="style1171"></style>
  <metadata
     id="metadata188">
    <rdf:RDF>
      <cc:Work
         rdf:about="">
        <dc:format>image/svg+xml</dc:format>
        <dc:type
           rdf:resource="http://purl.org/dc/dcmitype/StillImage" />
      </cc:Work>
    </rdf:RDF>
  </metadata>
  <defs
     id="defs186" />
  <sodipodi:namedview
     inkscape:current-layer="Contours"
     inkscape:window-maximized="1"
     inkscape:window-y="23"
     inkscape:window-x="0"
     inkscape:cy="480.0517"
     inkscape:cx="363.41583"
     inkscape:zoom="0.52295563"
     showgrid="false"
     id="namedview184"
     inkscape:window-height="755"
     inkscape:window-width="1280"
     inkscape:pageshadow="2"
     inkscape:pageopacity="0"
     guidetolerance="10"
     gridtolerance="10"
     objecttolerance="10"
     borderopacity="1"
     inkscape:document-rotation="0"
     bordercolor="#666666"
     pagecolor="#ffffff" />
  <path
     style="stroke-width:0.520024;stop-opacity:1"
     inkscape:connector-curvature="0"
     id="path181"
     d="m 359.53695,138.93378 c 5.61274,-14.4739 16.40719,-26.87603 29.96842,-34.43178 3.70336,-2.06335 7.59379,-3.77205 11.52862,-5.34985 31.3999,-12.59088 66.08951,-16.87066 99.60805,-12.289 7.92791,1.08368 15.92857,-0.65422 23.88888,-1.46627 17.82632,-1.8185 36.11472,1.10579 52.48516,8.39228 7.55227,3.36152 15.98638,3.96787 24.10648,5.51716 8.12011,1.5493 16.54982,4.41238 21.67978,10.89466 4.09575,5.17543 5.5138,11.95137 6.24351,18.51093 0.71614,6.43771 0.84899,13.16729 -1.62534,19.1535 -3.35964,8.12811 -10.97863,13.64776 -18.66173,17.92836 -10.22053,5.69432 -21.17926,9.97431 -32.34341,13.47378 -63.67877,19.96047 -135.13054,13.78686 -194.44187,-16.80024 -8.08647,-4.17023 -17.01817,-10.56724 -16.69694,-19.66002 -0.0709,-0.6928 1.0789,-0.5154 1.60811,-0.0627 34.32343,29.36251 81.27686,39.87326 126.44132,40.52655 40.30002,0.58292 81.83263,-6.34548 115.93437,-27.8281 6.59306,-4.15334 13.65669,-10.82258 11.71961,-18.37019 -0.97032,-3.78072 0.0432,-7.85028 -0.87959,-11.64288 -0.9228,-3.7926 -5.56276,-7.20873 -8.57479,-4.7262 -10.00158,8.24333 -23.35169,10.92872 -36.15998,12.91156 -63.262,9.79349 -128.14695,9.02011 -191.15753,-2.27848 -2.99772,-0.53753 -6.53411,-1.56193 -7.39925,-4.48199 -3.41196,5.28325 -7.43275,10.17297 -11.95729,14.54134 -1.50497,1.45303 -4.13944,2.7939 -5.40169,1.12568 -0.75589,-0.999 -0.36583,-2.42011 0.0871,-3.58812 m 232.79054,-33.59735 c -23.04637,-8.64261 -47.47358,-17.43073 -71.7145,-13.16369 -15.49979,2.72836 -31.37966,0.28998 -47.11661,0.10123 -32.33364,-0.38782 -64.72058,9.03638 -91.79795,26.71206 -1.2043,0.78615 -0.98673,2.7587 0.0557,3.74951 1.04244,0.99082 2.55629,1.26143 3.97731,1.48296 48.42234,7.54881 97.67371,9.76755 146.57867,6.60325 25.9183,-1.677 52.26068,-5.00594 75.76485,-16.05693 -3.84245,-4.86456 -9.94311,-7.2517 -15.74746,-9.42839 z"
     stroke="none"
     opacity="1.000000"
     fill="#000000"
     class="selected" />
</svg>
