<?xml version="1.0" encoding="UTF-8" standalone="no"?>
<svg
   xmlns:dc="http://purl.org/dc/elements/1.1/"
   xmlns:cc="http://creativecommons.org/ns#"
   xmlns:rdf="http://www.w3.org/1999/02/22-rdf-syntax-ns#"
   xmlns:svg="http://www.w3.org/2000/svg"
   xmlns="http://www.w3.org/2000/svg"
   xmlns:sodipodi="http://sodipodi.sourceforge.net/DTD/sodipodi-0.dtd"
   xmlns:inkscape="http://www.inkscape.org/namespaces/inkscape"
   inkscape:version="1.0beta1 (32d4812, 2019-09-19)"
   sodipodi:docname="mouth-A.svg"
   stroke-linejoin="round"
   stroke-linecap="round"
   fill="none"
   stroke="black"
   xml:space="preserve"
   enable-background="new 0 0 1523.678589 1523.678589"
   viewBox="-5e-06 -2.2e-05 1024 71.54377"
   height="768"
   width="1024"
   y="0px"
   x="0px"
   id="Contours"
   version="1.1">
  <metadata
     id="metadata127">
    <rdf:RDF>
      <cc:Work
         rdf:about="">
        <dc:format>image/svg+xml</dc:format>
        <dc:type
           rdf:resource="http://purl.org/dc/dcmitype/StillImage" />
      </cc:Work>
    </rdf:RDF>
  </metadata>
  <defs
     id="defs125" />
  <sodipodi:namedview
     inkscape:current-layer="Contours"
     inkscape:window-maximized="0"
     inkscape:window-y="23"
     inkscape:window-x="0"
     inkscape:cy="1052.5714"
     inkscape:cx="1093.4286"
     inkscape:zoom="0.35"
     showgrid="false"
     id="namedview123"
     inkscape:window-height="755"
     inkscape:window-width="1280"
     inkscape:pageshadow="2"
     inkscape:pageopacity="0"
     guidetolerance="10"
     gridtolerance="10"
     objecttolerance="10"
     borderopacity="1"
     inkscape:document-rotation="0"
     bordercolor="#666666"
     pagecolor="#ffffff" />
  <g
     transform="matrix(0.50495746,0,0,0.50495746,132.00011,-4.78726)"
     id="g1284"
     style="opacity:1;stop-opacity:1">
    <path
       inkscape:connector-curvature="0"
       class="selected"
       fill="#000000"
       opacity="1.000000"
       stroke="none"
       d="m 1520.8793,29.559626 c 4.6073,11.068767 2.6751,23.664415 0.2567,35.407327 -4.3861,21.296867 -10.1313,42.313747 -17.1889,62.880327 -1.4521,4.23156 -3.0925,8.64348 -6.4826,11.56268 -3.3901,2.9192 -9.0906,3.65482 -12.1275,0.36968 -3.2555,-3.52167 -1.8196,-9.11947 -0.2548,-13.65289 8.3186,-24.09968 14.8139,-48.828431 19.4122,-73.905264 1.4069,-7.671952 1.3924,-17.781158 -5.8341,-20.71656 -7.8635,-3.194181 -14.5931,-9.105654 -18.7743,-16.491803 -0.8045,-1.421225 -1.5272,-2.925699 -1.7537,-4.54306 -0.9216,-6.580439 7.0815,-11.535754 13.605,-10.272488 6.5235,1.263266 11.4897,6.408172 15.9984,11.289081 5.0823,5.501873 10.2653,11.158087 13.1436,18.072969 z"
       id="path118" />
    <path
       inkscape:connector-curvature="0"
       class="selected"
       fill="#000000"
       opacity="1.000000"
       stroke="none"
       d="M 24.670912,67.637228 C 102.7537,71.827199 180.83649,76.01717 258.91928,80.207141 670.99276,102.31926 1087.2127,124.2103 1493.8718,54.054127 c 6.4966,11.756919 -11.1316,21.725889 -24.4155,23.717985 -62.6769,9.399054 -125.5976,17.172165 -188.6775,23.308858 C 892.42527,138.86172 501.01681,114.44044 111.59658,89.99265 79.828831,87.998272 47.821857,85.966363 17.043653,77.850352 c -7.896876,8.003445 3.481945,19.967009 12.569861,26.587098 9.087915,6.62009 14.526479,24.38222 3.378251,25.84262 -2.989654,0.39164 -5.910643,-1.00356 -8.487452,-2.56927 C -6.562905,108.83379 -8.507677,56.737528 21.065663,35.596791 25.615157,32.344548 32.424337,29.99859 36.3438,33.987674 45.452175,43.257843 19.49761,55.715169 24.670911,67.637227 Z"
       id="path120" />
  </g>
</svg>
