<?xml version="1.0" encoding="UTF-8" standalone="no"?>
<svg
   xmlns:dc="http://purl.org/dc/elements/1.1/"
   xmlns:cc="http://creativecommons.org/ns#"
   xmlns:rdf="http://www.w3.org/1999/02/22-rdf-syntax-ns#"
   xmlns:svg="http://www.w3.org/2000/svg"
   xmlns="http://www.w3.org/2000/svg"
   xmlns:sodipodi="http://sodipodi.sourceforge.net/DTD/sodipodi-0.dtd"
   xmlns:inkscape="http://www.inkscape.org/namespaces/inkscape"
   inkscape:version="1.0beta1 (32d4812, 2019-09-19)"
   sodipodi:docname="mouth-C.svg"
   stroke-linejoin="round"
   stroke-linecap="round"
   fill="none"
   stroke="black"
   xml:space="preserve"
   enable-background="new 0 0 1657.807129 1657.807129"
   viewBox="-6e-06 -2e-06 1024 370.87212"
   height="768"
   width="1024"
   y="0px"
   x="0px"
   id="Contours"
   version="1.1">
  <metadata
     id="metadata155">
    <rdf:RDF>
      <cc:Work
         rdf:about="">
        <dc:format>image/svg+xml</dc:format>
        <dc:type
           rdf:resource="http://purl.org/dc/dcmitype/StillImage" />
      </cc:Work>
    </rdf:RDF>
  </metadata>
  <defs
     id="defs153" />
  <sodipodi:namedview
     inkscape:current-layer="Contours"
     inkscape:window-maximized="1"
     inkscape:window-y="23"
     inkscape:window-x="0"
     inkscape:cy="847.21081"
     inkscape:cx="-21.301901"
     inkscape:zoom="0.16407216"
     showgrid="false"
     id="namedview151"
     inkscape:window-height="755"
     inkscape:window-width="1280"
     inkscape:pageshadow="2"
     inkscape:pageopacity="0"
     guidetolerance="10"
     gridtolerance="10"
     objecttolerance="10"
     borderopacity="1"
     inkscape:document-rotation="0"
     bordercolor="#666666"
     pagecolor="#ffffff" />
  <g
     transform="matrix(0.49752777,0,0,0.49752777,91.4534,-7.6209)"
     id="g1252"
     style="opacity:1;stop-opacity:1">
    <path
       inkscape:connector-curvature="0"
       class="selected"
       fill="#000000"
       opacity="1.000000"
       stroke="none"
       d="m 29.439314,195.49809 c 2.248917,4.45516 -3.466568,9.60028 -8.371716,8.68074 -4.905148,-0.91954 -8.287956,-5.37336 -10.729073,-9.72618 C -2.435605,171.6748 -2.41352,143.3833 5.187726,118.39871 12.788972,93.414113 27.284424,71.140678 42.541468,49.945595 c 2.175537,-3.022255 4.548862,-6.174094 7.999668,-7.57371 3.450806,-1.399615 8.240231,-0.17326 9.329988,3.387557 0.499181,1.631097 0.147836,3.391037 -0.281009,5.04202 -5.027979,19.356901 -19.780573,34.482731 -29.169403,52.141158 -15.051313,28.30836 -15.429068,63.93432 -0.981401,92.55547 z"
       id="path142" />
    <path
       inkscape:connector-curvature="0"
       class="selected"
       fill="#000000"
       opacity="1.000000"
       stroke="none"
       d="m 1148.0951,727.64085 c 0.7303,0.42749 1.4606,0.85498 2.1908,1.28247 -3.2801,2.59365 -7.4711,4.01099 -11.6521,3.94061 2.4415,-2.50904 5.8275,-4.07623 9.3203,-4.31379 z"
       id="path144" />
    <path
       inkscape:connector-curvature="0"
       class="selected"
       fill="#000000"
       opacity="1.000000"
       stroke="none"
       d="m 478.58443,474.10413 c -5.2888,2.21555 -11.31411,2.62788 -16.85542,1.15345 5.05639,-2.8984 11.45132,-3.33602 16.85542,-1.15346 z"
       id="path146" />
    <path
       inkscape:connector-curvature="0"
       class="selected"
       fill="#000000"
       opacity="1.000000"
       stroke="none"
       d="m 1612.2828,107.90644 c -17.7257,-20.564934 -35.4515,-41.129864 -53.1772,-61.694793 62.7636,24.575564 104.8927,93.716793 97.9556,160.762323 -18.0222,-25.41728 -30.8754,-54.48346 -37.551,-84.91825 -25.3417,157.02036 -105.65,300.98917 -206.3346,424.11601 -27.2342,33.30471 -56.2379,65.53162 -90.2772,91.84204 -51.3041,39.65521 -112.2125,64.5363 -172.2947,88.92429 -64.5348,26.19532 -129.6578,52.53732 -198.21682,64.80926 -77.94129,13.95135 -158.0179,9.28549 -236.67489,0.19917 C 598.32725,778.38641 478.92087,753.84664 379.43692,690.08149 285.51187,629.87938 215.56158,538.52112 159.2367,442.22098 103.29018,346.56771 58.828096,244.20429 27.108826,138.0278 23.919249,127.35107 34.626051,117.99438 44.126477,112.17134 260.29309,-20.322456 535.079,-22.543153 781.04952,38.947594 c 30.64991,7.662244 63.10069,16.224055 93.25578,6.800772 240.7641,-75.23752 507.0147,-39.25321 737.9775,62.158064 m -46.1434,156.01208 c 12.2104,-40.25183 24.4207,-80.50366 36.631,-120.75549 1.3252,-4.3687 2.6569,-9.03448 1.4026,-13.42406 -1.8564,-6.49608 -8.5909,-10.12062 -14.7188,-12.96565 C 1378.7565,18.951329 1133.911,-3.306122 909.0279,54.919782 872.52818,64.370154 833.76923,75.850679 797.97335,64.010286 579.54246,-8.241419 335.66387,-0.681746 122.12731,84.959935 89.842375,97.908234 53.395212,119.381 52.225262,154.14602 c -0.4346,12.91415 4.387879,25.35768 9.132652,37.37647 15.283505,38.71402 30.567011,77.42803 45.850516,116.14205 2.40579,6.09399 5.91585,13.09937 12.40853,13.97667 185.65071,25.08532 372.11994,44.11256 559.0111,57.04125 51.10848,3.53556 102.29248,6.61654 153.52268,6.40678 54.07232,-0.2214 108.06392,-4.10847 161.92633,-8.8735 178.67753,-15.807 356.49713,-41.30679 532.41613,-76.34983 9.5155,-1.89548 19.5327,-4.06815 26.6937,-10.61471 7.0898,-6.48145 10.1641,-16.14039 12.9525,-25.33269 M 1337.7,604.51679 c 2.1328,-1.65948 4.3644,-3.48906 5.1837,-6.06424 0.944,-2.96701 -0.2161,-6.15036 -1.3617,-9.04552 -9.3228,-23.56161 -18.6456,-47.12323 -27.9685,-70.68484 -1.527,-3.85928 -3.1596,-7.87188 -6.2822,-10.6059 -4.0501,-3.54597 -9.778,-4.2569 -15.1331,-4.80438 -160.9638,-16.45614 -322.59002,-26.43233 -484.35579,-29.89629 -50.32821,-1.0777 -100.66755,-1.52535 -151.00531,-1.97297 -95.26571,-0.84714 -190.73981,-1.68575 -285.57296,7.42176 -21.54536,2.06915 -43.55906,4.8009 -62.87397,14.56913 -19.31491,9.76823 -35.69018,28.01206 -37.42456,49.58695 -2.29026,28.48986 20.11388,52.37441 41.34015,71.51502 46.18561,41.6475 95.73562,81.0259 153.12876,104.97695 32.05336,13.37636 65.96985,21.68816 99.92463,28.99688 82.88738,17.84138 166.99373,30.01735 251.53783,36.41482 34.32794,2.5976 68.97444,4.23427 103.07419,-0.49453 35.28654,-4.89339 69.24863,-16.49589 102.89453,-28.20225 C 1133.3634,717.7612 1245.3125,676.40015 1337.7,604.51679 M 901.06303,398.74731 c -76.87827,3.04746 -153.82288,-1.94911 -230.59928,-6.94312 -183.76466,-11.95321 -368.10463,-23.97854 -548.92798,-58.83888 36.3565,78.08034 81.25814,152.17823 133.64499,220.54453 -1.26857,-32.21931 22.92714,-61.11305 51.94418,-75.17382 29.01703,-14.06076 62.16533,-16.26756 94.37045,-17.85626 299.69882,-14.78429 599.96821,3.15338 899.34941,23.37294 6.7839,0.45817 15.4044,-0.19074 17.7716,-6.56471 24.6887,31.16971 38.901,70.493 39.8449,110.24461 74.6684,-81.65634 137.4389,-174.17489 185.7192,-273.73458 -179.9557,34.70288 -361.5976,60.66079 -544.0703,77.75152 -32.96261,3.08734 -65.96625,5.88643 -99.04717,7.19777 m 428.44917,124.43874 c 0.7615,3.37138 2.3967,6.54151 4.7024,9.11633 1.4494,-3.51218 -0.6785,-8.04416 -4.3066,-9.17231 z"
       id="path148" />
  </g>
</svg>
