<?xml version="1.0" encoding="utf-8"?><!DOCTYPE svg PUBLIC "-//W3C//DTD SVG 1.1//EN" "http://www.w3.org/Graphics/SVG/1.1/DTD/svg11.dtd"><svg version="1.1" id="Contours" xmlns="http://www.w3.org/2000/svg" xmlns:xlink="http://www.w3.org/1999/xlink" x="0px" y="0px" width="520.120605px" height="520.120605px" viewBox="-0.000021 0.000001 520.120605 203.698044" enable-background="new 0 0 520.120605 520.120605" xml:space="preserve" stroke="black" fill="none" stroke-linecap='round' stroke-linejoin='round'><path class="selected"  fill="#000000" opacity="1.000000" stroke="none" 
 	d="
M0.987640 103.961586 C11.780855 76.128465 32.538443 52.279340 58.616527 37.749727 C65.738028 33.781925 73.219280 30.496121 80.785887 27.462029 C141.167498 3.249939 207.875166 -4.980016 272.330885 3.830460 C287.576153 5.914342 302.961314 2.572386 318.268903 1.010829 C352.548680 -2.486120 387.717033 3.137239 419.197184 17.149088 C433.720085 23.613246 449.938761 24.779226 465.553622 27.758504 C481.168483 30.737782 497.378693 36.243451 507.243551 48.708786 C515.119630 58.661075 517.846532 71.691117 519.249740 84.305067 C520.626880 96.684699 520.882332 109.625593 516.124249 121.136997 C509.663692 136.767263 495.012480 147.381462 480.237986 155.613006 C460.584041 166.563115 439.510527 174.793483 418.042011 181.522911 C295.588579 219.906632 158.187752 208.034873 44.132833 149.216266 C28.582654 141.196973 11.407100 128.895598 12.024826 111.410302 C11.888396 110.078052 14.099551 110.419202 15.117202 111.289767 C81.120723 167.753502 171.411548 187.965532 258.262224 189.221793 C335.758635 190.342748 415.625303 177.019526 481.202496 135.708727 C493.880867 127.721902 507.464148 114.897044 503.739157 100.383088 C501.873249 93.112816 503.822224 85.287095 502.047709 77.993978 C500.273194 70.700860 491.350618 64.131674 485.558507 68.905553 C466.325609 84.757379 440.653523 89.921348 416.023336 93.734313 C294.371341 112.567082 169.598435 111.079868 48.429887 89.352831 C42.665322 88.319172 35.864894 86.349257 34.201236 80.734018 C27.640089 90.893645 19.908154 100.296505 11.207519 108.696839 C8.313485 111.490986 3.247435 114.069458 0.820146 110.861505 C-0.633433 108.940427 0.116653 106.207653 0.987640 103.961586 M448.640810 39.354327 C404.322946 22.734696 357.349742 5.835268 310.734766 14.040710 C280.928876 19.287318 250.392090 14.598350 220.130130 14.235383 C157.952983 13.489614 95.673315 31.612227 43.603877 65.602334 C41.288023 67.114089 41.706412 70.907263 43.710982 72.812591 C45.715553 74.717919 48.626683 75.238297 51.359283 75.664297 C144.474817 90.180566 239.184559 94.447161 333.228156 88.362252 C383.068695 85.137416 433.724772 78.735904 478.922980 57.484999 C471.533997 48.130501 459.802498 43.540069 448.640810 39.354327 z"/></svg>