<svg xmlns="http://www.w3.org/2000/svg" stroke-linejoin="round" stroke-linecap="round" fill="none" stroke="#000" xml:space="preserve" viewBox="0 0 1024 481.853" height="768" width="1024" y="0" x="0" id="Contours" version="1.1"><style id="style1199"/><g id="g1204"><path class="selected" fill="#000" opacity="1" stroke="none" d="M831.822 180.76c-2.608 7.703-5.266 15.512-9.824 22.248-1.224 1.809-3.432 3.727-5.31 2.61-1.756-1.046-1.351-3.662-.718-5.606l6.622-20.341c2.944-9.045.758-18.86-1.338-28.139-.411-1.82-.819-3.712-.419-5.534.4-1.823 1.852-3.556 3.716-3.647 3.034-.147 4.537 3.568 5.15 6.543l3.22 15.634c.52 2.522 1.043 5.075.93 7.648-.128 2.948-1.083 5.79-2.03 8.584z" id="path168" stroke-width=".514" stop-opacity="1"/><path class="selected" fill="#000" opacity="1" stroke="none" d="M181.06 158.819c.697.94-.113 2.204-.627 3.256-.608 1.244-.786 2.649-.913 4.028a66.712 66.712 0 004.497 30.795c.413 1.029.751 2.433-.166 3.056-.688.467-1.621.121-2.344-.29-6.696-3.81-9.718-11.864-10.925-19.473a68.264 68.264 0 01.18-22.417c.324-1.845.74-3.719 1.733-5.306.994-1.587 2.676-2.856 4.548-2.89 2.555-.045 4.799 2.599 4.338 5.112-.259 1.41-1.174 2.978-.321 4.129z" id="path170" stroke-width=".514" stop-opacity="1"/><path class="selected" fill="#000" opacity="1" stroke="none" d="M810.773 80.011c12.516 22.1 8.26 49.5 3.538 74.454-9.07 47.918-18.907 96.804-43.6 138.86-30.719 52.316-82.919 90.109-140.205 110.085-57.285 19.977-119.42 23.142-179.746 16.706-53.816-5.74-104.342-31.47-145.008-67.182-40.667-35.712-72.015-81.033-96.97-129.057-9.911-19.07-19.02-39.15-20.796-60.57-2.618-31.58 11.435-63.048 33.09-86.182 21.657-23.133 50.293-38.702 79.952-49.86 36.627-13.779 77.874-21.24 114.64-7.84 42.104 15.346 88.6 18.416 132.356 8.74 29.471-6.518 57.816-18.68 87.893-21.216 45.896-3.871 90.562 15.017 131.126 36.836 16.903 9.092 34.271 19.526 43.73 36.226M414.71 30.606c-12.44-3.42-24.819-7.356-37.632-8.86-32.13-3.775-64.024 7.99-93.088 22.199-21.611 10.566-43.074 23.084-57.85 42.067-16.18 20.783-22.792 47.229-29.004 72.824-1.185 4.88-1.812 11.212 2.498 13.789 1.756 1.05 3.906 1.123 5.952 1.167l44.71.962c48.447 1.043 96.897 2.085 145.354 2.409 93.751.625 187.497-1.443 281.227-3.51 42.703-.943 86.243-2.03 126.543-16.184 3.911-20.368 7.733-41.976.433-61.389-7.347-19.536-24.746-33.414-42.46-44.45-41.41-25.798-91.592-41.766-139.235-31.262-16.358 3.606-31.893 10.193-47.98 14.863-51.728 15.016-107.531 9.655-159.468-4.625m350.217 260.51A421.777 421.777 0 00802.02 167.31c-33.235 9.935-68.125 12.812-102.752 14.87-121.36 7.215-243.06 5.05-364.616 2.884l-131.964-2.352a494.102 494.102 0 0068.077 120.853c5.143 6.71 12.213 14 20.534 12.509 150.622-26.98 305.963-38.81 456.41-10.866 7.873 1.463 13.77-6.867 17.218-14.094m-428.523 71.293c36.239 22.855 77.461 37.762 119.936 43.373 38.105 5.034 76.755 2.656 115.117.27 10.25-.639 20.551-1.283 30.58-3.5 8.093-1.79 15.926-4.586 23.682-7.508 44.102-16.614 88.263-38.921 116.42-76.713-40.993-14.648-85.32-16.408-128.842-17.316-106.483-2.219-214.171-.086-317.52 25.655 10.587 14.743 25.274 26.057 40.627 35.74m199.333 52.104a100.158 100.158 0 00-15.45-.125c-.838.058-1.963.481-1.781 1.302 6.129.876 12.378.908 18.516.094.471-.58-.54-1.207-1.285-1.27m-157.13-23.3c-1.16-.559-2.699-1.063-3.599-.143a55.254 55.254 0 0014.708 7.455c1.01-.519-.079-1.994-1.103-2.488l-10.006-4.824M191.416 150.639a28.505 28.505 0 003.313-13.46c-3.176 3.604-4.454 8.794-3.313 13.46m437.73-134.276a85.174 85.174 0 0013.275-1.036c.641-.101 1.443-.387 1.45-1.035a26.57 26.57 0 00-14.725 2.07z" id="path172" stroke-width=".514" stop-opacity="1"/></g></svg>