<svg xmlns="http://www.w3.org/2000/svg" stroke-linejoin="round" stroke-linecap="round" fill="none" stroke="#000" xml:space="preserve" viewBox="0 0 1024 300.777" height="768" width="1024" y="0" x="0" id="Contours" version="1.1"><style id="style1171"/><path id="path181" d="M359.537 138.934c5.613-14.474 16.407-26.876 29.968-34.432 3.704-2.063 7.594-3.772 11.529-5.35 31.4-12.59 66.09-16.87 99.608-12.289 7.928 1.084 15.929-.654 23.889-1.466 17.826-1.819 36.115 1.106 52.485 8.392 7.552 3.362 15.986 3.968 24.107 5.517 8.12 1.55 16.55 4.413 21.68 10.895 4.095 5.175 5.513 11.951 6.243 18.51.716 6.439.849 13.168-1.625 19.154-3.36 8.129-10.98 13.648-18.662 17.929-10.22 5.694-21.18 9.974-32.344 13.474-63.678 19.96-135.13 13.786-194.442-16.8-8.086-4.17-17.018-10.568-16.696-19.66-.071-.694 1.078-.516 1.608-.063 34.323 29.362 81.277 39.873 126.441 40.526 40.3.583 81.833-6.345 115.934-27.828 6.593-4.153 13.657-10.823 11.72-18.37-.97-3.78.043-7.85-.88-11.643-.922-3.793-5.562-7.209-8.574-4.726-10.002 8.243-23.352 10.928-36.16 12.911-63.262 9.794-128.147 9.02-191.158-2.278-2.998-.538-6.534-1.562-7.4-4.482a82.289 82.289 0 01-11.956 14.541c-1.505 1.453-4.14 2.794-5.402 1.126-.756-1-.366-2.42.087-3.588m232.79-33.598c-23.046-8.642-47.473-17.43-71.714-13.163-15.5 2.728-31.38.29-47.117.1-32.333-.387-64.72 9.037-91.798 26.713-1.204.786-.986 2.759.056 3.75 1.043.99 2.556 1.26 3.977 1.482a671.194 671.194 0 00146.58 6.604c25.917-1.677 52.26-5.006 75.764-16.057-3.842-4.865-9.943-7.252-15.748-9.429z" stroke="none" opacity="1" fill="#000" class="selected" stroke-width=".52" stop-opacity="1"/></svg>