<?xml version="1.0" encoding="UTF-8" standalone="no"?>
<svg
   xmlns:dc="http://purl.org/dc/elements/1.1/"
   xmlns:cc="http://creativecommons.org/ns#"
   xmlns:rdf="http://www.w3.org/1999/02/22-rdf-syntax-ns#"
   xmlns:svg="http://www.w3.org/2000/svg"
   xmlns="http://www.w3.org/2000/svg"
   xmlns:sodipodi="http://sodipodi.sourceforge.net/DTD/sodipodi-0.dtd"
   xmlns:inkscape="http://www.inkscape.org/namespaces/inkscape"
   inkscape:version="1.0beta1 (32d4812, 2019-09-19)"
   sodipodi:docname="mouth-E.svg"
   stroke-linejoin="round"
   stroke-linecap="round"
   fill="none"
   stroke="black"
   xml:space="preserve"
   enable-background="new 0 0 1292.968628 1292.968628"
   viewBox="-1e-06 3e-06 1024 481.85287"
   height="768"
   width="1024"
   y="0px"
   x="0px"
   id="Contours"
   version="1.1">
  <style
     id="style1199"></style>
  <metadata
     id="metadata179">
    <rdf:RDF>
      <cc:Work
         rdf:about="">
        <dc:format>image/svg+xml</dc:format>
        <dc:type
           rdf:resource="http://purl.org/dc/dcmitype/StillImage" />
      </cc:Work>
    </rdf:RDF>
  </metadata>
  <defs
     id="defs177" />
  <sodipodi:namedview
     inkscape:current-layer="Contours"
     inkscape:window-maximized="1"
     inkscape:window-y="23"
     inkscape:window-x="0"
     inkscape:cy="773.79203"
     inkscape:cx="1023.0078"
     inkscape:zoom="0.2103686"
     showgrid="false"
     id="namedview175"
     inkscape:window-height="755"
     inkscape:window-width="1280"
     inkscape:pageshadow="2"
     inkscape:pageopacity="0"
     guidetolerance="10"
     gridtolerance="10"
     objecttolerance="10"
     borderopacity="1"
     inkscape:document-rotation="0"
     bordercolor="#666666"
     pagecolor="#ffffff" />
  <g
     id="g1204">
    <path
       class="selected"
       fill="#000000"
       opacity="1.000000"
       stroke="none"
       d="m 831.82174,180.76008 c -2.60733,7.70332 -5.26599,15.5118 -9.82334,22.24751 -1.22404,1.80911 -3.43275,3.7278 -5.30967,2.61054 -1.75686,-1.04578 -1.35198,-3.66204 -0.71907,-5.60618 2.2073,-6.78033 4.4146,-13.56066 6.6219,-20.34099 2.9445,-9.04483 0.75826,-18.86022 -1.33755,-28.13852 -0.41113,-1.82011 -0.81904,-3.71195 -0.41876,-5.53447 0.40029,-1.82253 1.85161,-3.55588 3.71538,-3.6465 3.03412,-0.14753 4.53694,3.56762 5.14993,6.54284 1.07366,5.21109 2.14732,10.42218 3.22098,15.63326 0.51966,2.52223 1.042,5.07566 0.92978,7.64841 -0.1286,2.94793 -1.08357,5.78913 -2.02958,8.5841 z"
       id="path168"
       inkscape:connector-curvature="0"
       style="stroke-width:0.513643;stop-opacity:1" />
    <path
       class="selected"
       fill="#000000"
       opacity="1.000000"
       stroke="none"
       d="m 181.05992,158.81887 c 0.69667,0.94084 -0.11244,2.20414 -0.62671,3.25583 -0.60828,1.24394 -0.78658,2.64916 -0.91312,4.02807 -0.95685,10.42747 0.59833,21.07676 4.49718,30.79513 0.41277,1.02886 0.75069,2.43339 -0.16631,3.05632 -0.68784,0.46725 -1.62112,0.1208 -2.34384,-0.29045 -6.69606,-3.81026 -9.71841,-11.86361 -10.92508,-19.47278 -1.17575,-7.41418 -1.11449,-15.02302 0.18048,-22.41732 0.32301,-1.84438 0.73901,-3.71833 1.73278,-5.30531 0.99379,-1.58696 2.67521,-2.85613 4.54736,-2.88979 2.55513,-0.046 4.79887,2.59796 4.33794,5.11159 -0.25837,1.40901 -1.17314,2.97748 -0.32068,4.12871 z"
       id="path170"
       inkscape:connector-curvature="0"
       style="stroke-width:0.513643;stop-opacity:1" />
    <path
       class="selected"
       fill="#000000"
       opacity="1.000000"
       stroke="none"
       d="m 810.77264,80.01149 c 12.51621,22.09924 8.26107,49.49882 3.53803,74.45326 -9.06928,47.91811 -18.90682,96.804 -43.59987,138.85931 -30.71834,52.31712 -82.91877,90.10972 -140.20438,110.08609 -57.28561,19.97637 -119.41983,23.14173 -179.74629,16.70623 -53.81571,-5.74096 -104.34195,-31.47108 -145.00838,-67.18287 -40.66641,-35.71178 -72.01426,-81.03259 -96.97059,-129.05624 -9.91066,-19.07114 -19.01935,-39.15097 -20.79497,-60.57005 -2.61791,-31.57968 11.43494,-63.04857 33.09065,-86.18211 21.65571,-23.13354 50.29251,-38.70205 79.9512,-49.85968 36.62682,-13.77906 77.87382,-21.24082 114.64072,-7.84001 42.10316,15.34577 88.59956,18.41584 132.35491,8.73915 29.47167,-6.51779 57.8161,-18.67892 87.89312,-21.21561 45.89654,-3.87092 90.56192,15.01722 131.12576,36.83585 16.90302,9.09186 34.27149,19.52611 43.73009,36.22668 M 414.71144,30.60635 c -12.43991,-3.42023 -24.81926,-7.35608 -37.63269,-8.86104 -32.13052,-3.77382 -64.02395,7.98991 -93.08758,22.19968 -21.6115,10.56627 -43.07396,23.08435 -57.8511,42.06695 -16.17885,20.78323 -22.79106,47.22872 -29.00322,72.82378 -1.18449,4.88032 -1.81225,11.21183 2.498,13.78908 1.75593,1.04993 3.90624,1.12274 5.95166,1.16677 14.90329,0.32075 29.80659,0.64152 44.70989,0.96228 48.44754,1.04274 96.89721,2.08551 145.35489,2.40875 93.75076,0.62539 187.49625,-1.44255 281.22628,-3.51036 42.70317,-0.94209 86.24296,-2.02983 126.54339,-16.18343 3.91112,-20.36825 7.73301,-41.97572 0.43284,-61.38886 C 796.50733,76.54366 779.10841,62.66619 761.39311,51.62963 719.98369,25.83173 669.80243,9.86398 622.15857,20.36795 605.80132,23.9742 590.26558,30.5611 574.17954,35.23063 522.45135,50.24652 466.64778,44.88572 414.71144,30.60635 M 764.9279,291.11516 c 18.62642,-39.03526 31.18673,-80.9579 37.09261,-123.80431 -33.23453,9.93486 -68.12454,12.81191 -102.75109,14.87035 -121.36044,7.21452 -243.06067,5.05073 -364.61604,2.88419 -43.98809,-0.78402 -87.97619,-1.56804 -131.96428,-2.35205 16.85887,43.21775 39.85243,84.03716 68.07644,120.85293 5.1432,6.70885 12.21312,13.99913 20.53416,12.50869 150.62279,-26.97936 305.9637,-38.81046 456.41037,-10.86565 7.87294,1.46236 13.76933,-6.86716 17.21784,-14.09415 m -428.52317,71.29318 c 36.23923,22.85444 77.46149,37.76162 119.93648,43.37257 38.10508,5.03369 76.75438,2.65578 115.11633,0.26926 10.25122,-0.63774 20.55162,-1.2822 30.58044,-3.49962 8.09303,-1.78941 15.92573,-4.5855 23.68208,-7.50751 44.10199,-16.61432 88.26292,-38.92117 116.41995,-76.71274 -40.99329,-14.64823 -85.31975,-16.40866 -128.84214,-17.31583 -106.48327,-2.2195 -214.1713,-0.0863 -317.52026,25.65491 10.58732,14.74294 25.27455,26.05679 40.62712,35.73896 m 199.33345,52.10504 c -5.13653,-0.43946 -10.30703,-0.48135 -15.45001,-0.12518 -0.83868,0.058 -1.96289,0.48119 -1.78161,1.30211 6.1293,0.87597 12.37869,0.90751 18.51651,0.0935 0.47109,-0.57934 -0.54091,-1.20674 -1.28489,-1.27039 M 378.60843,391.21399 c -1.15951,-0.55902 -2.69897,-1.06307 -3.59905,-0.14285 4.49271,3.20179 9.46882,5.72403 14.70723,7.45464 1.01115,-0.51872 -0.0784,-1.99427 -1.10213,-2.48779 -3.33535,-1.60801 -6.6707,-3.21601 -10.00605,-4.824 M 191.41647,150.63896 c 2.18927,-4.12252 3.33862,-8.79212 3.31291,-13.45981 -3.17666,3.60346 -4.45412,8.79358 -3.31291,13.45981 M 629.14598,16.36272 c 4.44313,0.002 8.88634,-0.34528 13.27544,-1.03616 0.64061,-0.10084 1.44259,-0.38631 1.44885,-1.03478 -4.97111,-0.7298 -10.14735,-0.002 -14.72429,2.07094 z"
       id="path172"
       inkscape:connector-curvature="0"
       style="stroke-width:0.513643;stop-opacity:1" />
  </g>
</svg>
