<svg xmlns="http://www.w3.org/2000/svg" stroke-linejoin="round" stroke-linecap="round" fill="none" stroke="#000" viewBox="0 0 1024 370.872" height="768" width="1024"><path class="selected" fill="#000" d="M106.1 89.645c1.12 2.216-1.724 4.776-4.165 4.319-2.44-.458-4.123-2.674-5.338-4.84-6.355-11.332-6.344-25.408-2.563-37.838 3.782-12.43 10.994-23.512 18.585-34.058 1.082-1.503 2.263-3.071 3.98-3.768 1.717-.696 4.1-.086 4.642 1.686.248.811.073 1.687-.14 2.508-2.501 9.63-9.841 17.156-14.512 25.942-7.489 14.084-7.677 31.809-.489 46.049zM662.663 354.4l1.09.639a9.185 9.185 0 01-5.798 1.96 7.222 7.222 0 014.637-2.146zM329.562 228.26a13.144 13.144 0 01-8.386.573c2.516-1.442 5.698-1.66 8.386-.574z" stroke="none"/><path class="selected" fill="#000" d="M893.609 46.066L867.152 15.37c31.226 12.227 52.187 46.626 48.735 79.983a116.4 116.4 0 01-18.682-42.249c-12.609 78.122-52.564 149.75-102.657 211.01-13.55 16.57-27.98 32.604-44.916 45.694-25.525 19.73-55.829 32.108-85.721 44.242-32.108 13.033-64.509 26.139-98.619 32.244-38.778 6.942-78.618 4.62-117.752.1-58.402-6.747-117.81-18.956-167.306-50.681-46.73-29.952-81.533-75.406-109.556-123.318a693.055 693.055 0 01-65.737-151.344c-1.587-5.312 3.74-9.967 8.467-12.865 107.548-65.919 244.262-67.024 366.64-36.43 15.248 3.812 31.394 8.072 46.397 3.383C646.23-22.293 778.698-4.39 893.609 46.066m-22.958 77.62l18.225-60.08c.66-2.173 1.322-4.494.698-6.678-.924-3.232-4.274-5.035-7.323-6.45C777.423 1.807 655.606-9.267 543.72 19.702c-18.16 4.702-37.443 10.414-55.253 4.523C379.792-11.721 258.455-7.96 152.215 34.649c-16.063 6.442-34.196 17.125-34.778 34.422-.216 6.425 2.183 12.616 4.544 18.596l22.812 57.784c1.197 3.032 2.943 6.517 6.173 6.954a4286.359 4286.359 0 00278.124 28.38c25.428 1.758 50.893 3.291 76.382 3.187 26.902-.11 53.764-2.044 80.562-4.415a2470.71 2470.71 0 00264.892-37.986c4.734-.943 9.718-2.024 13.281-5.281 3.527-3.225 5.057-8.03 6.444-12.604M756.996 293.143c1.061-.826 2.172-1.736 2.58-3.017.469-1.476-.108-3.06-.678-4.5l-13.915-35.168c-.76-1.92-1.572-3.917-3.126-5.277-2.015-1.764-4.865-2.118-7.529-2.39a3001.542 3001.542 0 00-240.98-14.874c-25.04-.537-50.085-.76-75.13-.982-47.397-.422-94.898-.839-142.08 3.692-10.72 1.03-21.672 2.389-31.282 7.249-9.61 4.86-17.757 13.937-18.62 24.67-1.139 14.175 10.008 26.059 20.568 35.582 22.979 20.72 47.631 40.312 76.186 52.229 15.948 6.655 32.822 10.79 49.715 14.426a927.55 927.55 0 00125.147 18.118c17.08 1.292 34.317 2.106 51.283-.246 17.556-2.435 34.453-8.208 51.193-14.032 55.005-19.138 110.703-39.716 156.668-75.48M539.757 190.767c-38.249 1.516-76.53-.97-114.73-3.454-91.427-5.947-183.142-11.93-273.106-29.274a590.135 590.135 0 0066.492 109.727c-.631-16.03 11.407-30.406 25.844-37.401 14.436-6.996 30.929-8.094 46.952-8.884 149.108-7.356 298.5 1.568 447.45 11.628 3.376.228 7.665-.095 8.843-3.266 12.283 15.508 19.354 35.072 19.824 54.85a572.051 572.051 0 0092.4-136.19 2817.34 2817.34 0 01-270.69 38.683c-16.4 1.536-32.82 2.929-49.279 3.581m213.166 61.912a10.205 10.205 0 002.34 4.535c.72-1.747-.338-4.002-2.143-4.563z" stroke="none"/></svg>