<?xml version="1.0" encoding="UTF-8" standalone="no"?>
<svg
   xmlns:dc="http://purl.org/dc/elements/1.1/"
   xmlns:cc="http://creativecommons.org/ns#"
   xmlns:rdf="http://www.w3.org/1999/02/22-rdf-syntax-ns#"
   xmlns:svg="http://www.w3.org/2000/svg"
   xmlns="http://www.w3.org/2000/svg"
   xmlns:sodipodi="http://sodipodi.sourceforge.net/DTD/sodipodi-0.dtd"
   xmlns:inkscape="http://www.inkscape.org/namespaces/inkscape"
   inkscape:version="1.0beta1 (32d4812, 2019-09-19)"
   sodipodi:docname="mouth-B.svg"
   stroke-linejoin="round"
   stroke-linecap="round"
   fill="none"
   stroke="black"
   xml:space="preserve"
   enable-background="new 0 0 1670.665039 1670.665039"
   viewBox="-2e-06 -6e-06 1024 302.93143"
   height="768"
   width="1024"
   y="0px"
   x="0px"
   id="Contours"
   version="1.1">
  <metadata
     id="metadata21">
    <rdf:RDF>
      <cc:Work
         rdf:about="">
        <dc:format>image/svg+xml</dc:format>
        <dc:type
           rdf:resource="http://purl.org/dc/dcmitype/StillImage" />
      </cc:Work>
    </rdf:RDF>
  </metadata>
  <defs
     id="defs19" />
  <sodipodi:namedview
     inkscape:current-layer="Contours"
     inkscape:window-maximized="0"
     inkscape:window-y="23"
     inkscape:window-x="0"
     inkscape:cy="777.67766"
     inkscape:cx="755.91338"
     inkscape:zoom="0.35355339"
     showgrid="false"
     id="namedview17"
     inkscape:window-height="755"
     inkscape:window-width="1280"
     inkscape:pageshadow="2"
     inkscape:pageopacity="0"
     guidetolerance="10"
     gridtolerance="10"
     objecttolerance="10"
     borderopacity="1"
     inkscape:document-rotation="0"
     bordercolor="#666666"
     pagecolor="#ffffff" />
  <g
     transform="matrix(0.50113604,0,0,0.50113604,81.71347,-6.17132)"
     id="g40"
     style="opacity:1;stop-opacity:1">
    <path
       inkscape:connector-curvature="0"
       class="selected"
       fill="#000000"
       opacity="1.000000"
       stroke="none"
       d="m 50.770314,36.636077 c 4.461575,5.093557 0.08744,12.804494 -3.820605,18.334154 -15.090686,21.352441 -23.123449,47.042319 -26.850587,72.922119 -3.727138,25.87979 -3.359333,52.15314 -2.983689,78.29724 0.04519,3.14538 -4.527859,4.53444 -7.157177,2.80755 C 7.328939,207.27026 6.329958,203.95356 5.591628,200.89573 -7.074101,148.43996 2.032169,91.074764 30.319787,45.120011 c 2.26502,-3.679646 4.784958,-7.421868 8.535082,-9.568187 3.750123,-2.146318 9.068413,-2.166057 11.915443,1.084255 z"
       id="path10" />
    <path
       inkscape:connector-curvature="0"
       class="selected"
       fill="#000000"
       opacity="1.000000"
       stroke="none"
       d="m 1605.4453,29.584319 c 6.4689,6.832708 15.6173,10.334927 23.3881,15.640398 17.8534,12.189356 27.4785,33.146615 34.2161,53.687532 6.8317,20.827811 11.4744,43.997961 3.1568,64.278191 -1.2095,2.94913 -2.9002,6.00686 -5.8274,7.2685 -2.9272,1.26164 -7.1771,-0.48511 -7.1982,-3.67256 -0.1576,-23.79121 -1.363,-48.08434 -9.9807,-70.260514 -8.6176,-22.176172 -25.8768,-42.191075 -48.8247,-48.471335 -6.6269,-1.813626 -10.1706,-10.638024 -6.6385,-16.531237 3.532,-5.893213 12.9849,-6.928241 17.7085,-1.938975 z"
       id="path12" />
    <path
       inkscape:connector-curvature="0"
       class="selected"
       fill="#000000"
       opacity="1.000000"
       stroke="none"
       d="M 382.8258,554.45007 C 352.33185,540.4193 321.84079,526.1155 293.50837,508.11502 162.48758,424.87338 93.049035,274.59929 30.473471,132.54326 28.19688,127.37505 25.895521,121.49962 28.006397,116.26154 29.98416,111.35378 35.181804,108.68162 39.98494,106.4618 270.14999,0.088823 537.12476,-24.503968 782.8491,38.031728 834.0056,51.05082 887.56892,36.836502 939.22734,25.978685 1153.2734,-19.0106 1379.3505,-5.324871 1586.4065,65.156103 c 23.5972,8.032367 51.9527,25.255745 46.4216,49.561107 -49.9055,219.29808 -220.3941,407.0926 -433.8614,477.90161 -39.5165,13.10797 -80.1818,22.42966 -120.941,30.91843 C 925.47564,655.30832 766.47266,675.54143 614.57585,640.78112 534.06806,622.35759 457.85374,588.97167 382.8258,554.45008 M 783.07301,61.004335 C 541.44989,-16.460982 268.31913,10.292767 46.320079,133.17088 59.948405,161.99115 73.576732,190.81143 87.205058,219.63171 555.44543,298.77114 1037.405,332.36077 1504.144,244.80003 1564.8961,233.40287 1615.0548,179.25466 1621.7783,117.80951 1504.2244,53.6597 1370.4762,22.223399 1236.7084,15.87503 1102.9407,9.52666 968.88703,27.622074 838.46162,58.008235 c -18.24366,4.250356 -37.55071,8.715001 -55.38861,2.996111 M 264.72185,460.35399 c -0.54405,4.11834 -1.06333,8.45368 0.48955,12.30664 2.04873,5.08322 7.17158,8.1232 11.9652,10.77981 159.44766,88.36553 333.53212,162.77911 515.8286,162.90654 78.19425,0.0547 155.67474,-13.60228 232.6749,-27.21523 39.9982,-7.07131 80.055,-14.15551 119.2976,-24.63749 72.3103,-19.31462 141.5213,-50.18401 204.2061,-91.07973 3.7938,-2.4751 7.7961,-5.27369 9.3222,-9.53869 1.785,-4.98835 -0.3276,-10.4429 -2.412,-15.31373 -9.9076,-23.15239 -19.8153,-46.30479 -29.7229,-69.45718 -2.8481,-6.65541 -11.1736,-8.61765 -18.3347,-9.6782 -236.1462,-34.97277 -476.40949,-25.61978 -714.79354,-12.92501 -96.59375,5.14395 -193.1875,10.2879 -289.78125,15.43186 -25.43983,1.35475 -35.40328,33.16396 -38.73975,58.42041 M 1346.3387,411.03711 c 12.2724,23.32753 24.5448,46.65506 36.8172,69.9826 84.9406,-58.94197 151.8897,-143.45502 189.8289,-239.6303 -480.7239,119.90393 -986.08252,67.97197 -1477.035772,1.35868 40.338062,78.9134 92.087472,151.98241 153.137642,216.22695 -7.11889,-22.9246 8.71435,-47.91723 29.79935,-59.39063 21.085,-11.4734 46.0242,-12.7372 70.00244,-13.85972 320.29226,-14.99422 643.13547,-50.046 960.05424,-1.31758 8.1698,1.25617 16.6735,2.70558 23.3447,7.58598 6.426,4.70095 10.3444,11.99773 14.0513,19.04401 M 1619.5836,96.090979 c -8.3519,-4.218537 -15.6672,-10.223556 -23.77,-14.902849 -9.4413,-5.452242 -19.8233,-9.034435 -30.1319,-12.583616 -16.3229,-5.619825 -32.6458,-11.23965 -48.9687,-16.859475 -9.9061,-3.410587 -19.8172,-6.822749 -29.8808,-9.735799 -1.9986,2.392345 1.7025,5.367519 4.6775,6.298561 49.5513,15.507196 97.4957,36.143726 142.8193,61.473149 -0.5819,-7.01761 -8.4599,-10.515249 -14.7454,-13.689976 z"
       id="path14" />
  </g>
</svg>
