<?xml version="1.0" encoding="UTF-8" standalone="no"?>
<svg
   xmlns:dc="http://purl.org/dc/elements/1.1/"
   xmlns:cc="http://creativecommons.org/ns#"
   xmlns:rdf="http://www.w3.org/1999/02/22-rdf-syntax-ns#"
   xmlns:svg="http://www.w3.org/2000/svg"
   xmlns="http://www.w3.org/2000/svg"
   xmlns:sodipodi="http://sodipodi.sourceforge.net/DTD/sodipodi-0.dtd"
   xmlns:inkscape="http://www.inkscape.org/namespaces/inkscape"
   inkscape:version="1.0 (4035a4f, 2020-05-01)"
   sodipodi:docname="face.svg"
   id="svg42"
   version="1.1"
   height="300"
   width="300">
  <metadata
     id="metadata48">
    <rdf:RDF>
      <cc:Work
         rdf:about="">
        <dc:format>image/svg+xml</dc:format>
        <dc:type
           rdf:resource="http://purl.org/dc/dcmitype/StillImage" />
      </cc:Work>
    </rdf:RDF>
  </metadata>
  <defs
     id="defs46" />
  <sodipodi:namedview
     inkscape:current-layer="svg42"
     inkscape:window-maximized="1"
     inkscape:window-y="23"
     inkscape:window-x="0"
     inkscape:cy="150.57915"
     inkscape:cx="111.19691"
     inkscape:zoom="1.7266667"
     showgrid="false"
     id="namedview44"
     inkscape:window-height="704"
     inkscape:window-width="1280"
     inkscape:pageshadow="2"
     inkscape:pageopacity="0"
     guidetolerance="10"
     gridtolerance="10"
     objecttolerance="10"
     borderopacity="1"
     bordercolor="#666666"
     pagecolor="#ffffff" />
  <path
     id="path10"
     d="M222.049 106.17c1.963 40.127-28.975 74.249-69.103 76.212-40.127 1.963-74.249-28.975-76.212-69.102-1.964-40.128 28.974-74.25 69.102-76.213 40.128-1.963 74.25 28.975 76.213 69.102z" />
  <path
     id="path12"
     d="M202.553 213.964l-.594-55.351c-.212-19.714-16.305-35.34-35.893-35.13l-32.351.348c-19.715.212-35.34 16.305-35.13 35.893l.595 55.351c.21 19.588 16.304 35.34 35.892 35.13l32.478-.35c19.588-.21 35.215-16.176 35.003-35.89z"
     fill="#fbe2d6" />
  <path
     id="path14"
     d="M115.897 154.769c-3.743 1.39-11.955 9.642-11.955 9.642s5.692-10.477 10.057-12.825c4.364-2.348 27.879 4.77 28.84 5.708 1.361 1.329.245 3.954-1.102 3.773-2.735-.323-21.897-7.493-25.84-6.298z" />
  <path
     id="path16"
     d="M142.893 171.732s-5.108-5.138-11.459-5.062c-6.325.077-14.15 5.37-14.15 5.37s8.12 6.434 14.291 6.36c6.173-.075 11.318-6.668 11.318-6.668z"
     fill="#fff" />
  <path
     id="path18"
     d="M134.605 169.52a4.348 4.348 0 00-5.923 1.665 4.348 4.348 0 001.664 5.922 4.348 4.348 0 005.923-1.663 4.348 4.348 0 00-1.664-5.923z" />
  <path
     id="path20"
     d="M104.072 175.14c12.132 5.19 15.892-16.7 39.543-3.331-11.282-11.61-19.978-7.83-27.251-3.225-1.21.176-3.55-.413-4.179-.723.463 1.23 1.856 1.538 2.376 1.71-1.133.16-3.736-.535-4.203-.838.331.614.793 1.08 1.546 1.402.544.287 1.333.401 1.828.457-1.113.639-4.93-.28-5.398-.584.332.614.777 1.002 1.33 1.328.56.364 2.002.902 2.178.784-1.574.737-6.14.46-6.626-.12.408.597 1.062 1.021 1.815 1.344.753.323 1.426.462 2.391.458-1.695.924-3.31 1.468-5.35 1.338z" />
  <path
     id="path22"
     d="M114.792 172.264c2.92 4.259 7.831 7.236 17.384 6.213-8.077-1.458-12.306-4.383-14.795-7.75zm69.578-18.32c3.775 1.3 12.183 9.351 12.183 9.351s-5.942-10.337-10.362-12.579c-4.42-2.242-27.756 5.44-28.694 6.401-1.33 1.362-.15 3.96 1.192 3.746 2.726-.39 21.71-8.019 25.681-6.92z" />
  <path
     id="path24"
     d="M157.79 171.552s4.983-5.26 11.334-5.336c6.326-.076 14.276 5.028 14.276 5.028s-7.963 6.627-14.135 6.702c-6.172.074-11.475-6.394-11.475-6.394z"
     fill="#fff" />
  <path
     id="path26"
     d="M166.023 169.142a4.348 4.348 0 015.96 1.52 4.348 4.348 0 01-1.52 5.962 4.348 4.348 0 01-5.96-1.52 4.348 4.348 0 011.52-5.962z" />
  <path
     id="path28"
     d="M196.683 174.024c-12.004 5.482-16.29-16.312-39.612-2.378 10.999-11.878 19.783-8.308 27.165-3.88 1.214.147 3.539-.499 4.16-.823-.433 1.24-1.819 1.582-2.334 1.766 1.137.133 3.722-.624 4.182-.939-.317.622-.767 1.098-1.512 1.44-.537.3-1.323.432-1.816.5 1.127.612 4.922-.4 5.381-.714-.316.622-.752 1.021-1.296 1.36-.551.377-1.98.95-2.16.837 1.592.699 6.15.311 6.622-.281-.394.607-1.037 1.047-1.782 1.388-.745.341-1.415.496-2.38.515 1.717.883 3.345 1.388 5.382 1.21z" />
  <path
     id="path30"
     d="M185.896 171.407c-2.816 4.328-7.654 7.423-17.23 6.63 8.04-1.652 12.197-4.678 14.605-8.104zm-65.108-88.135c3.438-2.124 26.867-11.967 38.857 17.079 11.339 27.611-15.668 41.398-35.7 42.923-17.12 1.041-29.593 15.601-24.234 30.63-12.046-9.467-23.162-31.272-2.401-47.54 19.04-14.899 20.235-20.611 16.179-26.786-4.368-7.027 3.651-14.138 7.299-16.306z" />
</svg>
