<?xml version="1.0" encoding="UTF-8" standalone="no"?>
<svg
   xmlns:dc="http://purl.org/dc/elements/1.1/"
   xmlns:cc="http://creativecommons.org/ns#"
   xmlns:rdf="http://www.w3.org/1999/02/22-rdf-syntax-ns#"
   xmlns:svg="http://www.w3.org/2000/svg"
   xmlns="http://www.w3.org/2000/svg"
   xmlns:sodipodi="http://sodipodi.sourceforge.net/DTD/sodipodi-0.dtd"
   xmlns:inkscape="http://www.inkscape.org/namespaces/inkscape"
   inkscape:version="1.0 (4035a4f, 2020-05-01)"
   sodipodi:docname="mouth-C.svg"
   id="svg865"
   version="1.1"
   stroke-linejoin="round"
   stroke-linecap="round"
   fill="none"
   stroke="#000"
   viewBox="0 0 1024 370.872"
   height="768"
   width="1024">
  <metadata
     id="metadata871">
    <rdf:RDF>
      <cc:Work
         rdf:about="">
        <dc:format>image/svg+xml</dc:format>
        <dc:type
           rdf:resource="http://purl.org/dc/dcmitype/StillImage" />
      </cc:Work>
    </rdf:RDF>
  </metadata>
  <defs
     id="defs869" />
  <sodipodi:namedview
     inkscape:current-layer="svg865"
     inkscape:window-maximized="0"
     inkscape:window-y="23"
     inkscape:window-x="0"
     inkscape:cy="384"
     inkscape:cx="512"
     inkscape:zoom="0.67447917"
     showgrid="false"
     id="namedview867"
     inkscape:window-height="480"
     inkscape:window-width="689"
     inkscape:pageshadow="2"
     inkscape:pageopacity="0"
     guidetolerance="10"
     gridtolerance="10"
     objecttolerance="10"
     borderopacity="1"
     bordercolor="#666666"
     pagecolor="#ffffff" />
  <path
     id="path853"
     stroke="none"
     fill="#e60000"
     class="st2"
     d="M714.965 336.734c1.114 53.479-59.05 132.693-201.662 134.921-142.61 2.229-208.346-82.556-209.46-134.921 0 0 96.931-115.927 138.155-117.04 43.452-1.115 52.365 10.027 71.305 8.912 18.94 0 26.74-11.141 70.192-11.141 41.223-1.114 131.47 119.269 131.47 119.269z" />
  <path
     id="path855"
     stroke="none"
     fill="#000"
     d="M671.11 346.076c1.115 40.11-34.136 65.415-157.807 66.53-123.67 1.113-162.264-27.535-163.378-66.53 0 0 64.219-80.703 99.872-81.817 37.88-1.114 45.68 7.8 61.278 6.685 16.712 0 23.397-7.799 61.278-7.799 35.653-1.114 98.758 82.931 98.758 82.931z" />
  <path
     id="path857"
     stroke="none"
     fill="#fff"
     d="M572.354 263.145c-37.88 0-44.567 7.8-61.279 7.8-15.598 1.113-23.396-7.8-61.277-6.686-17.935.56-47.143 24.802-71.748 48.76h266.847c-24.6-24.973-54.27-50.445-72.543-49.874zM376.008 389.247c29.213 23.98 74.239 33.025 137.154 32.459 62.564-.564 106.584-9.095 134.676-32.46z" />
</svg>
