<?xml version="1.0" encoding="UTF-8" standalone="no"?>
<svg
   xmlns:dc="http://purl.org/dc/elements/1.1/"
   xmlns:cc="http://creativecommons.org/ns#"
   xmlns:rdf="http://www.w3.org/1999/02/22-rdf-syntax-ns#"
   xmlns:svg="http://www.w3.org/2000/svg"
   xmlns="http://www.w3.org/2000/svg"
   xmlns:sodipodi="http://sodipodi.sourceforge.net/DTD/sodipodi-0.dtd"
   xmlns:inkscape="http://www.inkscape.org/namespaces/inkscape"
   inkscape:version="1.0 (4035a4f, 2020-05-01)"
   sodipodi:docname="mouth-F.svg"
   stroke-linejoin="round"
   stroke-linecap="round"
   fill="none"
   stroke="#000"
   xml:space="preserve"
   viewBox="0 0 1024 300.777"
   height="768"
   width="1024"
   y="0"
   x="0"
   id="Contours"
   version="1.1"><metadata
     id="metadata2605"><rdf:RDF><cc:Work
         rdf:about=""><dc:format>image/svg+xml</dc:format><dc:type
           rdf:resource="http://purl.org/dc/dcmitype/StillImage" /></cc:Work></rdf:RDF></metadata><defs
     id="defs2603" /><sodipodi:namedview
     inkscape:current-layer="Contours"
     inkscape:window-maximized="0"
     inkscape:window-y="23"
     inkscape:window-x="0"
     inkscape:cy="384"
     inkscape:cx="512"
     inkscape:zoom="0.67447917"
     showgrid="false"
     id="namedview2601"
     inkscape:window-height="480"
     inkscape:window-width="689"
     inkscape:pageshadow="2"
     inkscape:pageopacity="0"
     guidetolerance="10"
     gridtolerance="10"
     objecttolerance="10"
     borderopacity="1"
     bordercolor="#666666"
     pagecolor="#ffffff" /><style
     id="style1171" /><path
     stroke-width="8.49"
     stroke="none"
     fill-opacity="1"
     fill="#e60000"
     id="path2512"
     d="M660.635 285.265c.656 52.684-57.602 91.041-141.653 92.139-84.052 2.195-158.183-35.919-159.756-93.184 0 0-7.046-80.159 17.25-81.256 79.666-24.92 122.869 5.679 134.032 4.581 9.666-.695 48.91-34 134.69-6.064 24.297 1.098 15.437 83.784 15.437 83.784z"
     class="st2" /><path
     stroke-width="8.49"
     stroke="none"
     fill-opacity="1"
     fill="#000"
     id="path2514"
     d="M643.544 246.086c-2.627 43.903-44.133 76.611-128.184 77.71-84.708 3.292-128.307-26.868-131.59-75.162 0 0 64.611 12.599 88.907 10.404 25.61-1.098 30.863 14.268 42.026 13.17 11.163 0 15.76-15.365 41.369-15.365 24.296 0 87.472-10.757 87.472-10.757z" /><path
     stroke-width="8.49"
     stroke="none"
     fill-opacity="1"
     fill="#fff"
     class="st0"
     d="M643.544 246.086c-3.283 53.781-42.163 43.684-126.214 44.782-84.052 2.195-128.963 11.548-133.56-42.234 0 0 64.611-7.158 88.907-8.255 25.61-1.098 30.863 9.878 42.026 8.78 11.163 0 15.76-10.975 41.369-10.975 24.296 0 87.472 7.902 87.472 7.902z"
     id="path2537" /></svg>
