<?xml version="1.0" encoding="UTF-8" standalone="no"?>
<svg
   xmlns:dc="http://purl.org/dc/elements/1.1/"
   xmlns:cc="http://creativecommons.org/ns#"
   xmlns:rdf="http://www.w3.org/1999/02/22-rdf-syntax-ns#"
   xmlns:svg="http://www.w3.org/2000/svg"
   xmlns="http://www.w3.org/2000/svg"
   xmlns:sodipodi="http://sodipodi.sourceforge.net/DTD/sodipodi-0.dtd"
   xmlns:inkscape="http://www.inkscape.org/namespaces/inkscape"
   inkscape:version="1.0 (4035a4f, 2020-05-01)"
   sodipodi:docname="mouth-G.svg"
   id="svg3180"
   version="1.1"
   stroke-linejoin="round"
   stroke-linecap="round"
   fill="none"
   stroke="#000"
   viewBox="0 0 1012.633 164.976"
   height="759.475"
   width="1012.633">
  <metadata
     id="metadata3186">
    <rdf:RDF>
      <cc:Work
         rdf:about="">
        <dc:format>image/svg+xml</dc:format>
        <dc:type
           rdf:resource="http://purl.org/dc/dcmitype/StillImage" />
      </cc:Work>
    </rdf:RDF>
  </metadata>
  <defs
     id="defs3184" />
  <sodipodi:namedview
     inkscape:current-layer="svg3180"
     inkscape:window-maximized="0"
     inkscape:window-y="23"
     inkscape:window-x="0"
     inkscape:cy="379.73749"
     inkscape:cx="506.3165"
     inkscape:zoom="0.68205012"
     showgrid="false"
     id="namedview3182"
     inkscape:window-height="480"
     inkscape:window-width="689"
     inkscape:pageshadow="2"
     inkscape:pageopacity="0"
     guidetolerance="10"
     gridtolerance="10"
     objecttolerance="10"
     borderopacity="1"
     bordercolor="#666666"
     pagecolor="#ffffff" />
  <path
     id="path3168"
     stroke-width="10.395"
     stroke="none"
     fill="#e60000"
     d="M747.964 126.274c1.039 49.896-103.952 181.915-237.01 182.954-133.058 2.08-240.128-126.82-241.168-176.717 0 0 132.019 8.316 170.48 7.276 40.542-1.04 48.858 9.356 66.53 8.316 17.672 0 24.948-10.395 65.49-10.395 38.461 1.04 175.678-11.434 175.678-11.434z"
     class="st2" />
  <path
     id="path3170"
     stroke-width="10.395"
     stroke="none"
     fill="#000"
     d="M715.739 152.261c-4.159 41.581-72.767 92.517-205.825 93.557-134.097 3.118-201.666-38.462-206.863-84.2 0 0 100.833 24.947 139.295 22.868 40.541-1.04 48.857 13.514 66.529 12.475 17.672 0 24.948-14.554 65.49-14.554 38.462 0 141.374-30.146 141.374-30.146z" />
  <path
     id="path3172"
     stroke-width="10.395"
     stroke="none"
     fill="#fff"
     class="st0"
     d="M715.739 152.261c-5.198 50.937-69.648 61.332-202.706 62.371-133.058 2.08-202.705-2.079-209.982-53.015 0 0 100.833 6.237 139.295 5.198 40.541-1.04 48.857 9.355 66.529 8.316 17.672 0 24.948-10.395 65.49-10.395 38.462 0 141.374-12.475 141.374-12.475z" />
</svg>
