<svg xmlns="http://www.w3.org/2000/svg" stroke-linejoin="round" stroke-linecap="round" fill="none" stroke="#000" viewBox="0 0 1427.333 1610" height="1427.333" width="1427.333"><path d="M0 0l.11 1610M847.961 454.99c-1.42-.212-1.577-2.475-.454-3.37 1.123-.894 2.741-.741 4.133-.387a19.411 19.411 0 018.595 4.775c1.227 1.177 2.344 2.626 2.502 4.32.157 1.692-1.01 3.586-2.707 3.674-2.208-4.742-6.895-8.242-12.069-9.012zM1208.057 1405.998c.637-2.648 4.273-4.009 6.492-2.43-1.59 4.12-4.818 7.581-8.816 9.457-1.455-2.322-.176-5.86 2.428-6.714zM1189.335 1400.323c1.026.76.298 2.374-.489 3.38l-4.603 5.888c-2.961-3.108-.509-9.311 3.777-9.554.457-.026.947.014 1.315.286zM254.451 601.69l1.169 1.742-2.488 3.612c-1.132-1.537-.681-3.992.922-5.027zM842.072 448.045a3.236 3.236 0 012.55.411 2.784 2.784 0 01-1.557 2.42c-1.11-.403-1.65-1.9-1.055-2.92zM925.22 755.91c14.46-1.111 29.017-2.22 43.44-.69 17.69 1.876 34.753 7.688 51.033 14.86a311.7 311.7 0 0150.81 28.32c1.021.703.275 2.291-.535 3.23a293.462 293.462 0 01-80.243 65.072c-9.8 5.404-20.89 7.999-31.93 9.838-67.809 11.295-139.786-4.832-196.292-43.98-2.86-1.981-.949-6.44 1.18-9.192 6.309-8.154 12.817-16.205 20.336-23.259 18.474-17.33 42.407-27.97 66.976-34.134 24.569-6.165 49.968-8.127 75.225-10.066m-52.026 14.172c-29.695 5.856-59.629 15.283-82.885 34.653-5.325 4.436-10.281 9.395-14.09 15.184 88.38-23.839 180.811-32.583 272.093-25.74-50.186-33.777-115.767-35.803-175.118-24.097m70.02 88.554c2.51-1.977 4.308-4.699 6.028-7.39a400.533 400.533 0 0026.477-48.54c-3.214-3.887-9.411-.521-13.086 2.934-3.674 3.455-9.775 6.918-13.096 3.123-3.45-3.942-9.565-3.62-14.763-2.973-26.124 3.255-52.247 6.51-78.37 9.763-1.32.165-2.69.348-3.798 1.083-3.239 2.152-2.109 7.363.513 10.235 2.622 2.87 6.331 4.803 8.202 8.212 1.87 3.409.012 9.106-3.845 8.609l27.75 19.202c2.536 1.755 5.156 3.548 8.166 4.22 2.76.617 5.632.243 8.434-.134l26.52-3.565c5.226-.702 10.727-1.517 14.869-4.779m31.06-20.27c-1.165 3.426-2.375 6.934-4.676 9.726-3.52 4.268-9.661 7.171-10.077 12.687a236.33 236.33 0 0071.759-37.46c5.135-3.933 10.148-8.119 14.16-13.192 3.16-3.995 7.828-6.765 12.848-7.622-4.876-.929-9.87-.984-14.834-1.035l-48.957-.51c-1.33-.015-2.684-.025-3.952.374-3.777 1.187-5.528 5.423-6.802 9.172l-9.47 27.86m-140.916-6.023c.348-4.193-5.111-7.727-3.684-11.685.643-1.783-2.232-2.538-4.099-2.21l-39.266 6.88c-3.087.541-6.704 1.507-7.754 4.46a524.404 524.404 0 0073.78 27.955c.266-1.473-.71-2.858-1.66-4.015a87.329 87.329 0 00-17.115-15.897c-1.589-1.12-.363-3.55-.202-5.488m34.744-24.498c1.41.385 3.622.14 3.438-1.311-4.494-1.311-9.474-.872-13.669 1.206 2.968 1.75 6.934 1.64 9.8-.273m-21.316 12.015c.446-2.293-3.147-4.005-4.647-2.214.385 1.261.845 2.625 1.951 3.341 1.107.717 3.006.203 3.068-1.114z" fill="#000" class="selected" stroke="none"/><path class="selected" fill="#000" d="M1395.482 1328.262c8.184 1.271 8.096 13.068 5.78 21.02-22.537 77.34-52.316 163.496-125.27 197.662-51.929 24.32-115.406 14.594-164.505-15.027-49.1-29.62-85.414-76.76-113.088-126.982-22.795 66.98-86.183 113.855-153.838 134.555-67.656 20.7-139.882 19.14-210.566 16.05-56.726-2.48-114.255-5.981-167.964-24.401-53.71-18.42-103.972-53.797-128.22-105.139-44.346 28.603-81.209 68.698-105.993 115.285-8.56 16.092-36.532 4.67-39.149-13.367-2.616-18.038 9.742-34.467 21.375-48.499-54.934 21.541-118.447 20.182-172.41-3.689 97.529-96.724 139.745-245.78 107.422-379.28l17.4 61.214c-2.63-103.617-98.35-190.736-90.115-294.058 4.731-59.352-16.32-117.352-25.379-176.198-22.619-146.949 35.343-303.782 148.09-400.703-7.481 16.376-35.811.2-32.581-17.513 3.23-17.713 21.7-27.681 38.103-35.105C402.974 144.295 611.789 54.366 829.2 66.918c42.49 2.454 86.359 9.45 121.687 33.186 35.328 23.735 59.788 67.95 49.175 109.167 39.405-17.43 85.207 5.274 117.232 34.102 32.026 28.827 59.133 65.088 98.52 82.562 14.53 6.446 30.494 10.19 43.356 19.531 13.115 9.525 21.686 23.911 29.894 37.889 36.141 61.55 73.008 125.113 83.198 195.76 6.193 42.935 2.202 86.599-1.26 129.84-7.778 97.158-12.828 194.512-17.877 291.85-1.37 26.394-2.48 54.128 9.205 77.834 11.684 23.707 40.832 41.033 65.003 30.344-37.299 17.223-83.717 12.766-117.059-11.238a1675.79 1675.79 0 01-51.078 306.307l127.039-72.959c2.853-1.638 5.997-3.336 9.247-2.83M232.803 1191.731c-27.173-38.452-41.795-85.626-41.135-132.706.339-24.125 3.856-50.826-10.701-70.067-30.509-40.323-43.738-93.286-35.775-143.219 2.859-17.928 9.192-36.696 23.884-47.36 14.693-10.665 39.397-8.385 46.85 8.17a734.488 734.488 0 0010.741-79.618c6.275-78.9 46.008-154.594 107.384-204.571.468 28.612 32.83 45.688 61.245 49.081 81.853 9.776 166.343-48.741 185.974-128.804 72.327 55.859 178.774 63 257.913 17.302 80.387 61.685 176.35 102.903 276.432 118.733 13.747 2.175 18.687 19.124 20.499 32.923a1499.742 1499.742 0 0111.01 267.22c7.6-24.686 48.416-20.053 60.816 2.606 12.401 22.66 5.547 50.572-1.59 75.397l-71.534 248.786c-5.982 20.805-15.708 45.184-37.006 49.06a157.503 157.503 0 01-18.335-41.183 672.862 672.862 0 01-56.632 147.455c-12.646 24.026-8.467 54.263 4.73 77.99 13.195 23.729 34.238 42.033 55.855 58.46 41.94 31.87 92.098 59.686 144.433 53.718 48.367-5.516 89.73-39.774 115.615-81.002 25.885-41.229 38.67-89.129 50.598-136.326a1563.248 1563.248 0 01-168.206 105.928c44.156-106.529 68.558-221.208 71.6-336.485.386-14.64 22.447-16.365 35.24-9.237 12.792 7.128 26.379 18.542 40.134 13.519-26.851-13.518-29.811-50.032-28.928-80.08a6527.513 6527.513 0 0117.25-319.585c3.341-42.516 7.088-85.458.864-127.65-9.984-67.675-44.802-128.759-78.968-188.023-7.426-12.882-15.12-26.082-26.745-35.353-14.352-11.448-33.01-15.616-49.63-23.415-41.106-19.291-67.709-59.509-102.334-88.886-34.625-29.378-90.26-46.355-123.26-15.162l4.78-83.433C927.191 70.72 816.135 65.656 721.478 77.372a1343.039 1343.039 0 00-290.756 69.547c-61.756 22.294-121.778 49.083-181.733 75.846-30.07 13.423-61.152 27.58-82.72 52.463l49.194 10.089C97.772 379.329 36.182 538.82 60.142 687.534c8.114 50.362 25.264 99.607 25.57 150.617.142 23.643-3.346 47.5.655 70.803 5.534 32.228 24.724 60.12 40.088 88.985 79.945 150.198 51.585 350.55-66.907 472.659 50.595 23.047 112.762 18.572 159.533-11.485a4386.31 4386.31 0 01-14.668 85.846l124.85-131.732a964.434 964.434 0 01-74.45-220.378l-22.01-1.117m9.423-383.354l1.76 159.967c.533 48.395 1.078 96.96 8.046 144.854 15.343 105.456 61.116 203.7 106.349 300.19 9.973 21.275 20.146 42.86 35.615 60.545 43.328 49.535 116.213 57.351 181.876 61.76l97.891 6.575c43.045 2.89 86.531 5.763 129.129-1.072 42.598-6.834 84.853-24.338 113.728-56.392 3.178-3.529 5.516-10.298 1.063-11.95 33.47 1.52 56.333-32.452 70.986-62.581 123.271-253.456 167.005-544.897 123.555-823.371-99.256-7.21-188.399-60.594-273.275-112.554-78.9 38.885-178.066 33.054-251.866-14.808-15.91 50.402-56.03 92.552-105.586 110.928-49.556 18.377-107.458 12.576-152.383-15.265l-7.65 9.61 3.847-16.577c-38.808 27.325-62.332 72.265-73.202 118.466-10.87 46.202-10.406 94.214-9.883 141.675m850.284 408.921c.82 8.088 4.771 18.189 12.894 17.872 6.061-.236 9.935-6.397 12.494-11.897 28.155-60.533 30.122-130.06 53.192-192.707 4.861-13.2 10.644-26.048 15.435-39.274a280.095 280.095 0 0016.465-83.433c.3-7.102.25-14.557-3.074-20.84-6.535-12.354-24.488-15.344-36.61-8.389-12.122 6.956-18.622 21.159-19.91 35.075a1225.56 1225.56 0 01-34.552 196.668c-9.167 35.09-19.997 70.844-16.334 106.925m-881.628-209.924l12.994 16.127a1286.48 1286.48 0 01-5.015-174.997c.51-12.926.141-28.183-10.455-35.604-9.114-6.383-22.425-3.416-30.574 4.16-8.15 7.577-12.111 18.605-14.67 29.434-9.37 39.633-3.197 82.727 16.92 118.137 8.685 15.287 19.768 29.053 30.8 42.743m-7.095 55.452c-1.019 9.02-2.712 18.015-2.495 27.09.26 10.915 3.275 21.56 6.433 32.012 6.266 20.736 13.543 41.906 27.977 58.058.917 1.026 1.89 2.05 3.126 2.652 3.977 1.934 8.862-1.566 10.076-5.818 1.214-4.252-.099-8.766-1.357-13.005a583.058 583.058 0 01-22.783-127.027l-9.08 6.649-12.773-28.269a182.974 182.974 0 01.876 47.658m32.263-19.802c2.057-76.743.38-153.531-1.295-230.283l-.266-12.178a975.164 975.164 0 001.56 242.461m902.727-160.32c6.907-66.834 2.987-134.273-1.681-201.3-1.332-19.119-2.75-38.39-7.966-56.833a1934.086 1934.086 0 014.91 264.666c2.993.406 4.427-3.53 4.737-6.534m-13.59 110.116c1.033 1.179 2.613-.826 2.866-2.373a808.806 808.806 0 009.238-83.582c.108-1.865.074-4.048-1.41-5.185-4.145 4.81-4.479 11.717-4.69 18.064a750.83 750.83 0 01-6.005 73.076m-783.187 414.183c1.494-.446 1.2-2.639.586-4.072l-28.356-66.29c.201 4.013-.862 7.973-1.21 11.976-.35 4.003.17 8.407 2.95 11.308a72.36 72.36 0 0117.758 31.925c1.481 5.777 2.88 12.602 8.272 15.153m-31.485-80.662l-14.973-39.516c-.51-1.344-2.233-2.885-3.016-1.68a107.19 107.19 0 007.075 27.008c2.303 5.652 5.446 11.474 10.914 14.188m-147.96-502.612a56.472 56.472 0 0118.08-21.436c.918-.653.985-2.2.126-2.928a35.344 35.344 0 00-16.358 13.083c-2.25 3.34-3.902 7.817-1.848 11.281m967.396-202.095c.936-9.686-1.075-19.388-3.076-28.911-.381-1.816-1.484-4.133-3.292-3.717a95.754 95.754 0 006.368 32.628M224.825 809.93c2.22-6.094 2.823-12.637 3.408-19.096.287-3.163.46-6.708-1.603-9.124-3.482 8.922-4.122 18.928-1.805 28.22M485.38 1527.59a257.972 257.972 0 00-8.987-2.093c-3.5-.749-7.52-1.315-10.34.89a64.763 64.763 0 0022.004 4.685c1.223-1.297-.947-3.046-2.677-3.482M993.244 184.004c-2.632 2.34-4.178 5.857-4.123 9.38.046 2.926 1.127 5.725 2.193 8.45 1.072 1.151 2.449-1.11 2.4-2.683l-.47-15.147M544.081 1540.18l5.607-.735c-4.602-2.768-10.43-3.404-15.52-1.695 2.622 2.316 6.492 3.121 9.82 2.044M992.462 165.603c-.035-1.107-1.785.044-1.752 1.151.082 2.739 1.716 5.378 4.13 6.673 1.618-2.591.423-6.492-2.37-7.732M329.083 530.018c-1.288 1.277-2.599 2.843-2.463 4.651.136 1.808 2.702 3.213 3.821 1.787.321-2.305.475-5.065-1.341-6.521m729.805 729.59a18.21 18.21 0 00-3.799 10.383c2.823-2.588 4.285-6.584 3.8-10.382m40.952-16.126c-.128 2.205 3.178 3.613 4.68 1.993.006-1.853-2.582-3.086-4.017-1.915m-817.803 25.025a6.205 6.205 0 002.18 4.663c.835-1.934-.164-4.452-2.097-5.288z" stroke="none"/><path class="selected" fill="#000" d="M624.953 827.278c-5.215-1.07-10.245 2.12-14.687 5.054a321.786 321.786 0 01-72.509 35.713c-12.342 4.249-25.071 7.766-38.108 8.412-20.628 1.023-40.915-5.172-60.223-12.503a496.104 496.104 0 01-67.36-31.54c-25.47-14.347-50.754-32.17-63.468-58.493-.697-1.444-1.369-3.06-.945-4.607.597-2.179 3.024-3.215 5.163-3.94 44.252-15.007 90.829-24.397 137.532-22.906 46.704 1.492 93.624 14.288 132.176 40.692 13.65 9.35 26.13 20.285 38.57 31.191l14.345 12.575c-1.633 3.468-6.73 1.123-10.486.352m-109.439 25.916c3.494-1.91 5.401-5.733 7.258-9.257a137.13 137.13 0 0127.384-35.95l-60.569-14.062c-21.095-4.898-42.195-9.797-63.44-13.994-4.038-.797-9.29-1.017-11.123 2.667-.767 1.543-.645 3.359-.504 5.075.976 11.933 1.987 24.033 6.085 35.282 4.098 11.25 11.732 21.739 22.672 26.602 4.336 1.927 9.271 3.058 12.524 6.514 3.116 3.31 8.511 1.264 12.891.044 15.256-4.25 32.928 4.678 46.822-2.92m89.02-42.155c-7.948-8.732-18.239-14.92-28.371-20.981-20.005-11.966-40.32-24.067-62.791-30.267-18.594-5.13-38.064-6.046-57.348-6.509-40.015-.96-81.273.148-118.045 15.959a430.666 430.666 0 0181.543 2.699c26.606 3.425 52.821 9.327 78.991 15.221l106.02 23.878m-274.362-35.354c1.138 6.873 4.704 13.136 9.005 18.617 13.753 17.526 34.59 27.71 54.69 37.318l23.381 11.176c.42.2.894.404 1.332.251.919-.32.72-1.666.34-2.562-3.93-9.299-7.903-18.675-13.68-26.955-2.822-4.047-2.872-9.43-1.915-14.27.957-4.84 2.803-9.493 3.43-14.387.296-2.32-.265-5.418-2.58-5.747a391.638 391.638 0 00-74.003-3.441m193.975 85.26c.59 1.94 3.417 1.625 5.311.9 27.816-10.666 56.312-21.739 78.484-41.635a338.993 338.993 0 00-42.293-11.049c-3.666-.708-8.86-.343-9.357 3.358-2.671 19.873-14.869 38.248-32.145 48.426m-10 2.165a20.477 20.477 0 00-12.905.285 2.753 2.753 0 00-1.77 2.31c4.835 2.056 10.838.995 14.675-2.595m-47.798-1.811a20.066 20.066 0 0013.673-.608c-4.054-2.726-9.877-2.467-13.673.608m64.899-25.083c-2.226 1.994-3.557 4.953-3.57 7.941 4.15-2.018 6.95-6.547 6.9-11.162L531.055 836m82.25-11.709l2.507-1.868c-1.972-2.413-6.787.18-5.857 3.154 1.18.43 2.645-.418 2.862-1.655zM284.514 677.744c34.365-11.721 71.874-7.282 107.893-2.708l51.491 6.54c13.316 1.69 26.64 3.383 39.847 5.781a378.728 378.728 0 01115.299 41.079c1.672.924 3.492 2.053 3.97 3.903 1.11 4.305-5.273 6.213-9.696 5.763a131.355 131.355 0 01-46.746-13.88c-3.146-1.62-6.654-3.424-10.054-2.44-4.998 1.449-10.304-.246-15.246-1.873a716.913 716.913 0 00-178.426-34.466c-25.95-1.652-54.033-1.286-75.13 13.912-2.039-4.728-.125-10.446 3.442-14.159 3.566-3.713 8.483-5.79 13.356-7.452m74.694.248c1.865 1.405 4.614 1.503 6.574.233-1.58-1.578-4.296-1.848-6.155-.612zM1109.465 717.198c-6.693 1.382-13.956-.292-19.369-4.464 4.583 4.2 7.652 10.018 8.53 16.172-15.494-18.782-39.958-28.345-64.18-30.818-24.221-2.473-48.593 1.37-72.637 5.2-26.728 4.259-53.48 8.522-79.862 14.563a605.314 605.314 0 00-80.798 24.547c-6.974 2.663-15.566 5.229-21.28.426-1.095-4.387.665-9.35 4.279-12.067 2.417-1.817 5.429-2.614 8.357-3.371l96.035-24.834c13.952-3.608 27.919-7.22 42.1-9.78 34.552-6.24 69.893-6.167 105.005-6.075 6.984.019 13.99.038 20.916.947 20.515 2.693 39.854 13.497 52.904 29.554zM616.968 1109.298c-29.79 9.556-65.39-4.654-80.411-32.097-3.218-5.878-5.594-12.443-5.268-19.135.471-9.694 6.416-18.146 12.136-25.986l14.831-20.331c2.619 2.902 3.55 7.227 2.358 10.95 3.295.077 6.19-1.991 8.99-3.73 2.8-1.737 6.237-3.257 9.294-2.027 3.057 1.23 3.915 6.549.77 7.535-13.124 4.115-27.4 11.263-30.867 24.574-2.754 10.574 2.35 21.491 7.852 30.932 6.466 11.096 15.662 22.913 28.497 23.339 9.688.321 18.106-6.05 26.911-10.102 8.806-4.052 21.229-4.864 26.32 3.384 8.146 13.197 24.62 19.752 40.102 18.826 15.48-.926 29.956-8.354 42.157-17.928 7.761-6.09 15.454-15.317 12.608-24.763-4.992-16.575-6.09-34.034-7.157-51.312l-9.957-161.257c-.251-4.075 1.411-9.914 5.382-8.963 4.87 1.165 1.548 9.125 4.064 13.453-2.113 5.146-1.225 10.967-.375 16.464 9.606 62.115 10.046 125.23 14.598 187.919.628 8.645 1.988 18.47 9.148 23.357 9.66 6.593 20.712 11.759 32.399 12.223 11.687.465 24.038-4.49 30.214-14.424 7.198-11.58 4.692-26.516 1.343-39.733-1.604-6.331-3.43-12.8-7.38-18-3.95-5.201-10.536-8.91-16.941-7.637.904-6.457 9.677-9.097 15.578-6.325 5.902 2.771 9.436 8.815 12.609 14.511 5.173 9.288 10.465 18.962 11.22 29.566.653 9.155-2.147 18.167-4.966 26.902-2.496 7.733-5.382 15.952-11.904 20.8-5.034 3.744-11.517 4.89-17.772 5.371a106.544 106.544 0 01-38.186-4.02c-9.42-2.777-19.792-8.607-20.704-18.384-10.243 16.032-27.57 27.35-46.367 30.29-18.797 2.938-38.752-2.553-53.4-14.694-4.768-3.951-11.829-1.439-17.726.452z" stroke="none"/><path class="selected" fill="#000" d="M669.657 856.887c.589-2.583 4.758-2.509 6.286-.345 1.53 2.163 1.19 5.083.78 7.7a1569.908 1569.908 0 01-25.955 129.56c-3.584 14.655-7.378 29.257-11.172 43.86l-10.772 41.45c-7.245-7.259-5.479-19.226-3.198-29.225l44.03-193zM555.48 1061.638c2.347 1.026 2.73 4.823.634 6.296-1.037-.986-2.122-2.053-2.454-3.444-.333-1.392.475-3.15 1.901-3.261zM569.411 1060.1c2.484-.89 3.182-4.734 1.17-6.44-2.012-1.706-5.69-.388-6.161 2.207-.472 2.596 2.508 5.122 4.991 4.233z" stroke="none"/></svg>