<svg xmlns="http://www.w3.org/2000/svg" stroke-linejoin="round" stroke-linecap="round" fill="none" stroke="#000" viewBox="0 0 1024 451.839" height="768" width="1024"><path class="selected" fill="#000" stroke="none" d="M894.98 115.969c-1.872.689-4.017-.41-5.194-2.02-1.178-1.61-1.624-3.621-2.107-5.556-6.328-25.371-23.05-46.678-39.368-67.11-.775-.97-.01-2.542 1.15-2.983 1.162-.44 2.465-.08 3.617.383 7.275 2.923 12.304 9.536 16.86 15.916 11.63 16.287 22.848 33.499 27.323 53.005.71 3.092.695 7.27-2.282 8.365z"/><path class="selected" fill="#000" stroke="none" d="M477.902-6.666C542.432.52 607.717-3.913 672.479.727s131.375 19.553 182.23 59.921c7.579 6.017 15.083 13.08 17.677 22.402 1.702 6.117 1.107 12.61.402 18.92a623.879 623.879 0 01-29.585 132.19c-6.54 19.152-14.041 38.045-23.88 55.73-27.301 49.079-72.01 87.176-122.326 112.127-50.315 24.95-106.104 37.382-162.019 42.65-32.205 3.034-64.846 3.747-96.757-1.546C377.12 432.987 321.51 401.3 272.38 363.59c-15.616-11.986-30.888-24.798-42.582-40.635-10.164-13.765-17.359-29.452-24.48-45.012-28.486-62.25-57.217-125.249-70.073-192.488a62.394 62.394 0 00-6.15 31.647c-4.204 2.426-7.755-4.217-7.787-9.07-.142-21.67 9.83-43.197 26.45-57.103.947 8.546-2.018 17.447-7.899 23.719 98.72-65.103 220.516-94.4 338.043-81.313M861.25 116.395c7.041-10.898 4.766-25.894-2.466-36.666-7.232-10.772-18.525-18.084-29.917-24.293-76.48-41.679-167.144-45.62-254.191-48.615l-85.323-2.936c-63.34-2.18-127.498-4.288-189.34 9.576-52.631 11.799-102.312 34.993-147.417 64.57-2.13 1.396-4.327 2.888-5.583 5.104-1.594 2.812-1.386 6.257-1.133 9.48.733 9.303 1.527 18.847 5.535 27.274s11.998 15.622 21.326 15.909c33.125 1.017 66.087 4.914 98.999 8.807l227.976 26.97c14.196 1.679 28.552.022 42.75-1.634l120.246-14.022c67.197-7.836 135.161-15.853 198.538-39.524M454.746 437.068c12.438 1.308 24.96 1.637 37.466 1.59 57.257-.215 114.912-8.465 168.31-29.127 53.399-20.662 102.46-54.164 137.343-99.567-22.096-21.77-56.268-24.062-87.278-24.789-124.115-2.908-248.318-1.347-372.364 3.72-27.005 1.104-54.257 2.411-80.35 9.456-6.644 1.794-13.54 4.18-18.016 9.408-4.475 5.228-5.342 14.115-.09 18.56 62.489 52.885 133.565 102.188 214.98 110.749m-23.673-245.759l123.874-7.403c35.27-2.108 72.86-3.702 103.473 13.94 29.496 17 47.05 48.956 58.955 80.85 29.948-1.505 60.307 6.707 85.412 23.104 29.44-55.878 49.353-116.76 58.625-179.234-85.314 36.773-181.63 34.037-273.39 48.552-21.427 3.389-42.805 7.755-64.49 8.297-17.703.442-35.358-1.673-52.94-3.784l-311.41-37.394a697.23 697.23 0 0074.854 168.903c14.96-12.85 34.164-20.675 53.845-21.94 8.529-23.852 19.432-47.916 38.672-64.392 28.016-23.992 67.7-27.298 104.52-29.499M704.8 277.461c-6.685-28.796-23.122-56.285-48.608-71.265-25.775-15.149-57.245-16.025-87.14-15.618a1539.015 1539.015 0 00-162.92 10.883c-23.047 2.774-46.851 6.364-66.373 18.925-22.69 14.599-36.748 39.695-44.696 65.478a4564.936 4564.936 0 01392.903-7.681c4.404.104 8.958.248 12.938 2.137a9.134 9.134 0 013.896-2.859m26.766-262.597a90.82 90.82 0 0014.902 3.391c.285.04.657.032.761-.237.083-.215-.14-.479-.365-.434L735.2 14.717c-1.216-.3-2.607-.57-3.634.147m-2.385-.487c.384-.695-.929-1.44-1.327-.753-.044.559.743.967 1.175.61z"/></svg>