<svg xmlns="http://www.w3.org/2000/svg" stroke-linejoin="round" stroke-linecap="round" fill="none" stroke="#000" viewBox="0 0 1012.633 164.976" height="759.475" width="1012.633"><path class="selected" fill="#000" stroke="none" d="M104.831 57.793c-.692 1.178-1.762 2.398-3.125 2.306-1.81-.12-2.59-2.334-2.793-4.137-1.295-11.512 3.037-23.091 9.637-32.612 6.6-9.52 15.357-17.304 24.026-24.988 3.164-2.805 6.356-5.63 10.022-7.734 1.638-.941 3.474-1.752 5.353-1.55 1.878.204 3.72 1.766 3.61 3.652-.085 1.443-1.205 2.585-2.269 3.563-7.516 6.916-15.79 12.985-23.117 20.1-7.327 7.116-13.803 15.517-16.571 25.348-1.52 5.395-1.934 11.22-4.773 16.052zM858.539 65.692c1.365 3.174 2.568 6.893.994 9.968-1.574 3.076-7.205 3.516-7.943.14-2.844-13.004-10.282-24.62-19.206-34.5-8.923-9.88-19.363-18.243-29.449-26.932-.886-.764-1.849-1.706-1.778-2.873.15-2.496 3.958-2.215 6.173-1.057 22.688 11.87 41.094 31.73 51.209 55.254z"/><path class="selected" fill="#000" stroke="none" d="M391.684-2.97c23.632 3.027 47.088 8.205 70.911 8.497 13.953.172 27.865-1.338 41.752-2.7 56.191-5.513 112.94-8.64 169.05-2.362C729.508 6.744 785.242 22.79 832.78 53.254c-30.953 46.627-87.676 68.632-142.165 81.403-98.083 22.987-200.523 24.976-300.312 11.168-95.734-13.246-192.618-42.662-265.198-106.479-3.485-3.064-7.24-7.452-5.564-11.779.91-2.347 3.197-3.827 5.376-5.088C164.475-.395 212.16-2.907 257.815-4.853c44.644-1.903 89.546-3.796 133.869 1.883m63.96 15.464c-73.077-14.518-148.25-16.11-222.589-11.14-30.912 2.066-62.364 5.413-90.68 17.984 34.307 34.519 81.974 52.167 129.17 64.04 96.353 24.24 197.691 28.478 295.731 12.366 36.57-6.01 73.897-4.628 110.905-6.607 37.008-1.98 74.896-7.698 106.917-26.358 7.988-4.655 16.495-12.25 14.763-21.333C701.307-5.057 586.898-4.033 479.064 11.69c-7.77 1.133-15.72 2.334-23.42.804M809.42 46.852c-.628 10.358-9.274 18.383-18.135 23.784-21.68 13.214-47.504 17.534-72.71 20.595-23.87 2.898-47.84 4.902-71.801 6.905l-85.582 7.154c-73.335 6.13-147.607 12.226-220.147-.17-24.203-4.135-48.007-10.301-71.776-16.46-49.67-12.87-102.322-27.492-136.704-65.58-6.443 2.008-1.808 11.794 3.605 15.825 49.466 36.842 105.952 64.225 165.516 80.238 22.808 6.131 46.034 10.607 69.358 14.318 108.808 17.315 221.432 17.832 328.008-10.107 46.68-12.238 94.439-31.683 123.352-70.32l-12.984-6.182z"/></svg>