<svg xmlns="http://www.w3.org/2000/svg" stroke-linejoin="round" stroke-linecap="round" fill="none" stroke="#000" viewBox="0 0 1024 428.977" height="768" width="1024"><path class="selected" fill="#000" stroke="none" d="M771.317 137.362c6.072 8.11 9.175 18.057 11.205 27.983 3.833 18.74 3.721 39.79-7.692 55.14-1.199 1.61-3.051 3.308-4.947 2.646-2.062-.72-2.287-3.54-1.904-5.69 1.473-8.257 6.314-15.672 7.42-23.987.546-4.097.16-8.254-.227-12.368-1.085-11.554-2.348-23.63-8.732-33.32-.661-1.003-1.66-2.093-2.835-1.842-2.25.48-3.213-2.747-3.155-5.046.07-2.756.477-6.064 2.966-7.248 2.858-1.36 6.004 1.198 7.9 3.732z"/><path class="selected" fill="#000" stroke="none" d="M201.35 177.065c44.315-48.976 107.61-80.316 173.425-85.872 12.042-1.016 24.2-1.201 36.183.371 24.53 3.218 47.77 13.707 72.417 15.857 22.124 1.93 44.188-2.948 66.2-5.902 47.278-6.344 95.738-3.77 142.079 7.546 29.284 7.151 60.624 20.346 72.923 47.867 9.21 20.609 5.462 44.55-.245 66.388-9.513 36.408-24.295 71.965-47.782 101.366-26.633 33.34-63.59 57.52-103.33 73.063-39.74 15.544-82.292 22.823-124.828 26.23-14.408 1.155-28.873 1.877-43.318 1.356-56.083-2.023-111.285-23.419-154.082-59.72l-23.327-29.88c-19.862-25.441-39.853-51.085-54.464-79.865-12.035-23.708-20.348-51.002-13.9-76.797-5.913 16.13-7.182 33.932-3.615 50.737-4.699 2.938-9.28-4.127-10.017-9.62-2.808-20.933 1.698-42.777 12.56-60.891 2.527-4.215 8.494-8.496 11.57-4.663l-8.448 22.429M294.303 351.5c3.018 3.028 7.243 6.244 11.141 4.49 9.913-4.46 21.03-5.226 31.877-5.928l103.656-6.711-36.446-2.094c-8.575-.493-19.232-2.598-21.353-10.92-1.002-3.93-4.876-6.283-7.649-9.243-7.45-7.954-6.834-20.599-3.327-30.918 7.19-21.154 24.958-38.413 46.312-44.984l-186.441 1.127c-5.984.036-14.352-2.717-12.863-8.513 171.25-.847 342.478-5.897 513.48-15.144 8.437-.456 18.379-1.84 22.283-9.334 13.073-25.093 5.107-59.185-17.73-75.887-8.945-6.54-19.51-10.463-30.076-13.801-46.558-14.712-96.208-19.557-144.732-14.125-27.419 3.07-54.859 9.384-82.305 6.566-20.422-2.096-39.987-9.183-60.185-12.855-65.443-11.9-133.629 13.503-185.34 55.342-10.129 8.197-20.13 17.558-24.398 29.87-5.876 16.958.336 35.576 7.676 51.954 18.483 41.246 44.515 79.094 76.42 111.108m377.68 4.453c-78.056-12.115-157.623-7.528-236.479-2.91l-36.088 2.113c-12.844.752-25.691 1.505-38.496 2.748a503.427 503.427 0 00-52.42 7.897c8.964 10.397 20.948 17.734 33.263 23.8 61.676 30.376 134.5 31.8 201.613 16.88a446.742 446.742 0 00128.608-50.528m-81.396-23.14l-13.112 5.339c33.06 1.985 66.07 4.829 98.983 8.526 6.236.7 11.668-3.985 16.019-8.506 29.34-30.49 50.472-68.806 60.604-109.89-.932-.386-1.992-.145-2.972.092-37.225 9.003-76.352 4.266-114.363 8.946-8.77 1.08-17.507 2.664-26.343 2.85-9.029.19-18.016-1.082-27.023-1.732-18.452-1.333-36.98-.057-55.436 1.219a55.448 55.448 0 0120.55 5.75c11.33 5.715 23.968 8.205 35.98 12.302 12.01 4.098 24.043 10.353 30.773 21.113 9.313 14.888 4.94 36.714-9.39 46.865-4.35 3.08-9.335 5.117-14.27 7.126m6.87-12.93c5.518-5.218 11.005-11.155 12.496-18.602 1.687-8.423-2.283-17.25-8.489-23.192-6.205-5.94-14.361-9.406-22.56-11.968-8.2-2.562-16.658-4.355-24.617-7.59-4.885-1.984-9.55-4.5-14.5-6.318-8.373-3.075-17.348-4.078-26.238-4.816-35.044-2.911-71.4-1.861-103.764 11.89-3.44 1.462-6.893 3.11-9.57 5.72-5.166 5.039-6.725 12.92-11.85 18-5.706 5.657-7.392 14.098-8.809 22.007-.589 3.29-.861 7.386 1.917 9.243 2.873 1.92 6.652-.089 9.54-1.985 25.573-16.796 55.35-27.135 85.83-29.802 4.814-.422 9.672-.654 14.473-.093 12.834 1.502 24.5 8.565 37.321 10.177a243.654 243.654 0 0145.566 10.245c9.465 3.108 19.741 7.763 23.255 17.085M476.715 291.9c-29.009 2.563-57.32 12.654-81.41 29.016 7.068 7.34 17.058 11.787 27.243 12.128l22.044.737c23.731.794 47.472 1.588 71.216 1.32 24.583-.278 49.687-1.81 72.476-11.032-2.701-6.689-9.913-10.283-16.748-12.588-18.673-6.294-38.75-7.374-57.577-13.194-7.618-2.355-15.076-5.495-22.992-6.454-4.725-.573-9.51-.352-14.252.067m-12.852 51.922c.366-.038.79-.141.931-.48a.556.556 0 00-.105-.582 14.169 14.169 0 00-5.563.402c1.495.598 3.136.827 4.737.66z"/></svg>