<svg xmlns="http://www.w3.org/2000/svg" stroke-linejoin="round" stroke-linecap="round" fill="none" stroke="#000" viewBox="0 0 1024 302.931" height="768" width="1024"><path class="selected" fill="#000" stroke="none" d="M107.156 12.188c2.236 2.553.044 6.417-1.914 9.188-7.563 10.7-11.588 23.575-13.456 36.544-1.868 12.97-1.684 26.136-1.495 39.238.022 1.576-2.27 2.272-3.587 1.407-1.318-.866-1.818-2.528-2.188-4.06-6.348-26.288-1.784-55.035 12.392-78.065 1.135-1.844 2.398-3.72 4.277-4.795 1.88-1.076 4.545-1.086 5.971.543zM886.26 8.654c3.242 3.425 7.826 5.18 11.72 7.838 8.948 6.109 13.771 16.611 17.148 26.905 3.423 10.438 5.75 22.05 1.581 32.212-.606 1.478-1.453 3.01-2.92 3.643-1.467.632-3.597-.243-3.607-1.84-.08-11.923-.683-24.097-5.002-35.21-4.318-11.114-12.968-21.144-24.468-24.291-3.32-.91-5.096-5.332-3.326-8.285 1.77-2.953 6.507-3.472 8.874-.972z"/><path class="selected" fill="#000" stroke="none" d="M273.561 271.684c-15.281-7.032-30.562-14.2-44.76-23.22C163.141 206.747 128.344 131.44 96.985 60.25c-1.141-2.59-2.294-5.534-1.237-8.16.992-2.459 3.596-3.798 6.003-4.91C217.095-6.127 350.886-18.451 474.027 12.888c25.637 6.524 52.48-.6 78.367-6.04C659.66-15.698 772.956-8.84 876.72 26.48c11.825 4.025 26.035 12.656 23.263 24.837C874.973 161.216 789.535 255.326 682.56 290.81c-19.803 6.57-40.182 11.24-60.608 15.495-76.448 15.921-156.13 26.06-232.251 8.641-40.346-9.233-78.54-25.963-116.139-43.263M474.14 24.4C353.054-14.42 216.178-1.013 104.926 60.565l20.49 43.329c234.651 39.66 476.179 56.493 710.078 12.613 30.445-5.712 55.582-32.847 58.951-63.64C835.535 20.72 768.508 4.966 701.473 1.784 634.437-1.397 567.258 7.671 501.897 22.9c-9.143 2.13-18.818 4.367-27.757 1.501M214.375 224.53c-.273 2.064-.533 4.236.245 6.167 1.027 2.547 3.594 4.07 5.997 5.402 79.905 44.283 167.145 81.575 258.5 81.638 39.186.028 78.014-6.816 116.602-13.638 20.044-3.544 40.118-7.094 59.784-12.347a355.644 355.644 0 00102.335-45.643c1.901-1.24 3.907-2.643 4.672-4.78.894-2.5-.164-5.234-1.209-7.675l-14.895-34.807c-1.427-3.335-5.6-4.319-9.188-4.85-118.342-17.526-238.746-12.84-358.21-6.477l-145.219 7.733c-12.749.679-17.742 16.62-19.414 29.277m542.037-24.715l18.45 35.071c42.568-29.538 76.118-71.89 95.13-120.087-240.907 60.088-494.16 34.063-740.195.68a464.452 464.452 0 0076.743 108.36c-3.568-11.489 4.367-24.013 14.933-29.763 10.567-5.75 23.065-6.383 35.081-6.946 160.51-7.514 322.298-25.08 481.118-.66 4.094.63 8.356 1.356 11.699 3.802 3.22 2.355 5.184 6.012 7.041 9.543m136.933-157.83c-4.185-2.115-7.851-5.124-11.912-7.469-4.731-2.732-9.934-4.528-15.1-6.306l-24.54-8.449c-4.964-1.71-9.931-3.42-14.974-4.879-1.002 1.199.853 2.69 2.344 3.156a378.67 378.67 0 0171.572 30.807c-.292-3.517-4.24-5.27-7.39-6.86z"/></svg>